<svg width="188" height="69" viewBox="0 0 188 69" fill="none" xmlns="http://www.w3.org/2000/svg">
<g id="KKESH_SVG_logo 2">
<g id="Group">
<path id="Vector" d="M163.119 14.5318C162.98 14.2879 164.169 14.1136 164.204 14.1136C164.379 14.1833 165.498 15.403 165.708 15.6818C165.871 15.8677 165.988 15.949 166.058 15.9258C166.501 15.8096 166.757 15.7399 166.827 15.7167C166.897 15.6934 167.014 15.7515 167.177 15.8909C167.177 15.8909 167.387 16.1697 167.807 16.6227C168.681 17.6333 168.681 17.6682 168.681 17.703C168.681 17.8773 167.772 18.1561 167.772 18.1561C167.702 18.1561 167.702 18.1561 166.827 17.0758C165.988 16.1 165.953 16.1 165.918 16.0652C165.848 16.0303 165.323 16.2394 165.323 16.2394C164.938 16.4136 164.833 16.4485 164.519 16.1349L163.084 14.5318" fill="#AA182C"/>
<path id="Vector_2" d="M118.836 24.7076C118.836 24.7076 118.836 24.7424 118.941 24.7773C120.165 25.2303 120.165 25.2651 120.06 25.4742C119.71 26.1712 119.29 26.8333 118.941 27.5303C118.836 27.7394 118.871 27.8091 118.906 27.8439C118.906 27.8439 120.2 28.5061 120.445 28.3318C120.55 28.2621 121.739 25.9273 121.739 25.9273C121.739 25.8576 121.739 25.8227 120.585 25.4045C120.41 25.3348 120.305 25.3 120.445 24.9864C120.445 24.9864 121.004 24.0454 121.634 23C121.669 22.9303 121.739 22.8258 121.704 22.7561C121.704 22.7561 120.41 22.1985 120.2 22.3727C120.2 22.3727 118.801 24.5682 118.836 24.7076Z" fill="#AA182C"/>
<path id="Vector_3" d="M135.731 5.61062C135.731 5.61062 135.731 5.61062 135.731 5.64547C135.836 5.68032 137.585 5.47123 137.585 5.47123C137.585 5.47123 137.585 5.47123 137.62 5.36668C137.725 4.9485 137.725 4.9485 137.725 4.91365C137.725 4.91365 137.725 4.91365 138.144 4.84395C138.704 4.8091 139.159 4.77426 139.404 4.73941C139.579 4.73941 139.579 4.73941 139.614 4.73941C139.683 4.73941 139.614 4.28638 139.614 4.28638C139.614 4.28638 137.865 4.28638 137.83 4.42577C137.736 4.70456 137.678 4.84395 137.655 4.84395C137.62 4.84395 137.585 4.84395 137.34 4.8788C136.78 4.9485 136.151 4.98335 136.081 5.01819C135.976 5.01819 135.906 5.05304 135.871 5.08789C135.871 5.08789 135.696 5.57577 135.696 5.61062" fill="#AA182C"/>
<path id="Vector_4" d="M144.581 43.0379C144.581 43.0379 145.35 45.4424 145.455 45.6166C145.502 45.6631 145.653 45.6399 145.91 45.5469C146.843 45.1985 147.356 45.0823 147.449 45.1985C147.519 45.2682 147.519 45.4076 147.554 45.4424C147.554 45.4424 148.079 47.5333 148.183 47.603C148.183 47.603 148.218 47.603 148.253 47.6379C148.253 47.6379 150.177 47.1848 150.177 46.8712C150.177 46.8712 149.583 44.4318 149.443 44.3273C149.408 44.3273 149.303 44.3273 148.988 44.4318C147.659 44.9197 147.589 44.85 147.554 44.8151C147.449 44.7454 147.449 44.6757 147.344 44.2924C146.714 42.1666 146.679 42.1666 146.574 42.1318C146.434 42.0969 144.651 42.9333 144.651 42.9333C144.651 42.9333 144.651 42.9682 144.651 43.003" fill="#AA182C"/>
<path id="Vector_5" d="M168.087 13.556C168.506 14.0787 168.891 14.6363 169.346 15.159C169.696 15.4727 170.255 15.3681 170.605 15.7515C170.605 15.7515 171.025 16.2742 171.724 17.3893C171.829 17.5287 171.864 17.5984 171.934 17.6681C171.934 17.6681 172.809 18.0515 172.914 18.0166C172.914 17.8772 171.619 16.1348 171.55 16.0651C171.235 15.7863 170.745 15.8212 170.465 15.5075C169.975 14.9499 169.661 14.253 169.066 13.7999C169.066 13.7999 168.087 13.3818 168.017 13.4166C168.017 13.4166 168.017 13.4515 168.122 13.556" fill="#AA182C"/>
<path id="Vector_6" d="M140.313 45.0242C140.313 45.0242 140.838 47.4287 140.873 47.4984C140.943 47.603 140.943 47.603 142.692 47.1151C142.797 47.1151 142.866 47.0454 142.901 46.9408C142.901 46.9408 142.482 44.4666 142.342 44.362C142.202 44.2227 140.418 44.7802 140.383 44.8151C140.313 44.8848 140.313 44.9893 140.348 45.0939" fill="#AA182C"/>
<path id="Vector_7" d="M174.488 23.3833C174.488 23.3833 174.488 23.4181 174.488 23.453C174.523 23.5227 175.712 24.3939 175.817 24.3939C175.887 24.2545 175.292 22.4075 175.222 22.303C175.117 22.1287 173.963 21.4318 173.963 21.4318C173.928 21.5363 174.488 23.3833 174.488 23.3833Z" fill="#AA182C"/>
<path id="Vector_8" d="M169.766 49.7288C169.766 49.7288 169.766 49.7636 169.766 49.7985C169.766 49.9727 171.165 50.7742 171.165 50.7742C171.2 50.7742 171.27 50.8439 171.375 50.7394C171.375 50.7394 172.144 48.9621 172.074 48.7182C172.039 48.5439 170.535 47.7424 170.535 47.7424C170.36 47.9167 169.801 49.6939 169.766 49.7288Z" fill="#AA182C"/>
<path id="Vector_9" d="M151.856 13.0333C151.856 13.0333 151.856 13.0682 151.891 13.103C152.031 13.2076 154.41 13.8 154.41 13.7652C154.62 13.7303 154.62 12.5455 154.62 12.5455C154.62 12.4758 154.305 12.3596 153.675 12.197C152.031 11.7439 152.031 11.7439 151.996 11.8136C151.996 11.8136 151.821 12.9636 151.821 13.0333" fill="#AA182C"/>
<path id="Vector_10" d="M169.381 15.612C169.917 16.4252 170.232 16.9131 170.325 17.0757C170.418 17.2383 170.477 17.3312 170.5 17.3545C170.57 17.4242 171.689 17.912 171.724 17.8075C171.724 17.703 170.605 15.9954 170.5 15.8908C170.325 15.7166 169.346 15.4727 169.346 15.4727C169.346 15.5075 169.346 15.5075 169.416 15.612" fill="#AA182C"/>
<path id="Vector_11" d="M120.025 32.3741C120.55 35.4408 123.733 36.5211 124.992 39.0651C124.549 39.9943 124.234 40.8075 124.048 41.5044C123.243 41.9226 123.208 41.9575 122.998 42.2711C122.998 42.3408 123.068 42.4802 123.068 42.5499C123.383 42.5499 123.698 42.4802 124.048 42.5151C125.272 45.4772 126.181 47.6378 128.77 50.3908C130.484 52.2029 132.198 53.5272 133.807 54.3635C136.046 55.5135 138.599 56.0014 140.803 57.2211C142.447 58.1272 143.426 59.9044 145.21 60.6014C145.21 60.6014 146.714 60.1135 146.574 59.556C146.085 57.8832 144.476 57.1863 143.426 55.9666C143.426 55.9317 140.138 52.1681 139.054 50.5999C140.208 50.5999 141.328 51.1923 142.517 50.7741C143.939 50.263 144.721 50.0191 144.86 50.0423C145.315 50.0772 145.7 50.356 145.07 51.2969C142.377 55.3741 146.4 56.2454 146.924 56.0363C147.81 55.711 150.259 52.0635 154.27 45.0938C154.69 45.8605 154.795 52.0287 154.06 54.712C153.36 57.2211 151.087 58.6499 149.898 60.8454C149.933 60.9151 150.002 61.0196 150.037 61.1241C150.597 60.9499 154.095 58.9984 155.634 54.1544C157.103 49.5544 155.809 44.7105 156.684 40.0757L156.439 39.9014C154.795 40.6681 154.76 40.7029 153.326 43.6302L147.694 54.4332C147.624 54.5029 145 54.0499 145.875 52.0287C146.691 50.1469 147.088 49.1943 147.064 49.1711C146.574 48.0908 145.035 48.7181 144.441 48.9272C141.258 50.2166 137.83 45.1984 135.031 48.6484C134.786 48.9272 134.856 49.2408 135.136 49.4151C136.221 50.0423 139.788 54.5726 139.823 54.6075C139.788 54.6075 135.486 54.1893 130.799 49.6938C131.848 48.9969 133.282 49.5893 134.297 48.7529C134.681 48.4393 135.171 47.1848 135.206 46.1045C135.276 41.8878 133.072 41.4696 130.939 41.0514C128.14 40.4938 126.811 40.7726 126.077 40.912C126.007 40.8423 125.937 40.7726 125.867 40.7029C126.042 39.8317 127.546 39.5529 127.091 38.4726C126.286 36.556 124.258 35.7893 123.068 34.2211C120.375 30.5969 122.579 27.3908 126.216 27.5651C126.811 27.5651 126.986 27.5651 127.581 27.4954C127.056 43.0726 135.276 37.9151 135.381 37.8105C140.838 32.1302 130.589 27.7741 130.484 27.7393C130.309 27.6696 130.029 27.4954 129.959 27.2863C130.939 25.7878 133.912 25.7878 133.457 23.3484C133.142 21.6408 130.869 19.3757 128.595 19.8287C125.622 20.456 126.951 24.0105 124.887 25.2651C123.593 24.8469 120.97 15.4029 127.651 11.9529C129.19 11.1514 130.204 11.256 131.358 11.3605C131.475 12.4524 131.615 13.0797 131.778 13.2423C124.502 14.5666 127.406 17.7378 127.441 17.7726C131.044 20.4211 135.556 19.6893 139.509 21.0484C139.124 21.2923 138.634 21.3969 138.214 21.5711C138.214 21.6408 138.214 21.7802 138.179 21.8499C138.564 21.9893 143.811 22.3378 144.336 22.1984C143.146 19.6196 133.702 18.0514 131.813 17.7726C128.84 17.3196 128.525 17.1454 128.28 17.0408C128.595 13.1726 131.498 13.6257 140.068 16.9363C145.63 19.0969 145.665 19.062 146.015 18.6787C145.292 17.7262 142.004 16.2625 136.151 14.2878C127.441 11.3257 135.906 10.3847 136.081 10.3847C136.151 11.0817 134.821 12.2666 134.786 12.3014C134.122 12.8938 134.996 13.556 135.486 13.5211C135.521 13.5211 140.033 12.1272 142.097 9.82717C142.272 9.65293 142.447 9.40899 142.587 9.1999C142.132 8.29384 141.677 8.25899 141.502 8.25899C140.698 9.09535 140.628 9.1302 138.529 9.2696C138.529 9.1999 138.459 9.0605 138.424 8.99081C138.774 8.39838 139.194 7.73626 139.963 7.49232C140.068 7.49232 140.208 7.42263 140.313 7.42263C141.118 7.35293 141.572 8.25899 142.412 8.1196C143.077 7.9802 143.321 7.00444 144.161 7.21353C145.945 7.70141 147.869 7.63172 147.694 6.79535C147.589 6.34232 146.505 4.87869 143.986 5.6105C143.053 5.88929 142.563 6.01707 142.517 5.99384C142.517 5.99384 142.762 3.79838 145.42 3.65899C145 3.65899 144.616 3.65899 144.196 3.65899L143.496 3.55444C142.307 3.8797 141.899 4.91353 142.272 6.65596C141.852 6.95798 141.199 6.95798 140.313 6.65596C139.614 4.5302 138.634 5.71505 138.599 5.71505C138.599 5.78475 138.669 5.92414 138.704 5.99384C139.369 5.33172 139.788 5.88929 140.033 6.48172C139.439 7.03929 138.529 6.86505 137.935 7.38778C137.34 7.9105 137.34 8.78172 136.71 9.2696C136.64 9.33929 136.535 9.37414 136.465 9.40899L131.323 10.9423C126.986 10.106 124.328 12.9635 123.383 14.2181C121.214 17.1454 120.2 26.2408 125.272 26.2408C126.986 26.2408 127.371 24.8469 127.756 23.4878C128.175 22.059 129.015 20.6302 129.854 20.8044C130.589 20.9438 131.953 22.9999 131.044 24.1499C130.169 25.2999 128.77 25.9272 127.791 26.9378C119.885 26.4151 119.64 30.5969 119.92 32.409M145.63 4.66959C146.819 5.7499 148.883 6.48172 149.758 4.94838C149.863 4.94838 154.83 5.95899 154.865 5.95899C154.865 6.02869 154.865 6.09838 154.865 6.16808C155.214 6.37717 155.284 6.41202 155.634 6.27263C156.007 6.13323 157.686 6.66758 160.671 7.87566C161.627 8.24737 163.178 9.95495 165.323 12.9984C165.44 12.9984 165.65 12.9519 165.953 12.859C166.256 12.7661 165.592 11.6974 163.959 9.65293C164.099 9.65293 164.519 9.61808 167.947 11.9878C169.171 12.8241 169.136 13.1378 169.136 13.2772C170.815 14.8802 172.774 16.2044 174.418 17.8772C174.593 18.0514 175.992 19.4802 176.832 21.0484C176.319 20.5605 175.992 20.3049 175.852 20.2817C174.873 21.2575 177.042 24.3938 177.881 24.2196C178.336 24.1499 178.196 23.5923 178.056 23.1741C178.826 23.906 181.239 28.4711 181.939 30.1438C181.939 30.109 181.904 30.0393 181.869 30.0044C181.414 28.9241 180.819 27.4605 180.295 26.4151C180.609 27.0423 180.994 27.8438 181.449 28.959C174.838 14.2878 163.644 9.1302 163.539 9.09535C163.505 9.1302 163.47 9.1999 163.435 9.23475C163.33 9.16505 163.19 9.09535 163.085 8.99081C159.727 6.27263 155.389 6.23778 151.577 4.80899C151.612 4.77414 151.681 4.70444 151.751 4.66959C151.751 4.5999 151.751 4.5302 151.751 4.4605C151.612 4.39081 151.332 4.25141 150.702 4.18172C150.737 4.21656 150.807 4.28626 150.842 4.32111C151.017 4.32111 151.262 4.32111 151.577 4.5302C151.577 4.5999 151.507 4.6696 151.507 4.70444C150.107 4.87869 148.953 4.07717 147.659 3.79838L146.155 3.69384C147.729 3.83323 148.428 4.04232 149.373 4.42566C149.373 4.5302 149.268 4.6696 149.198 4.73929C147.076 4.34434 145.887 4.25141 145.63 4.4605C145.63 4.5302 145.63 4.6696 145.7 4.70444M152.206 4.39081C153.291 4.63475 153.99 4.84384 154.62 5.01808L153.291 4.66959C152.766 4.5302 152.206 4.42566 151.612 4.28626C151.786 4.32111 152.031 4.35596 152.171 4.42566M126.007 42.4105C125.867 41.9226 125.832 41.8181 127.616 41.9923C129.155 42.1317 130.729 42.306 131.918 43.0029C133.982 44.1878 133.352 48.2651 132.758 48.4044C132.688 48.4044 129.924 47.5681 127.721 45.2332C127.231 44.7105 126.356 43.6651 126.042 42.4105M129.505 31.6772C129.225 29.8302 129.574 28.4363 129.574 28.4363C129.784 28.4363 132.653 30.1438 133.947 31.7469C136.36 34.8135 132.828 37.5666 132.513 37.5317C132.233 37.4969 130.134 35.5454 129.539 31.6772M137.515 11.1166C137.515 11.1166 137.76 10.4196 137.9 10.3499C137.9 10.3499 139.194 10.2105 139.229 10.2802C139.229 10.315 139.229 10.3151 138.389 10.7681C137.585 11.1863 137.585 11.1514 137.55 11.1514M144.546 6.48172C144.546 6.44687 145.21 6.23778 145.56 6.16808C145.805 6.13323 146.225 6.06353 146.4 6.16808C146.539 6.23778 146.47 6.48172 146.19 6.55141C145.77 6.65596 144.581 6.55141 144.546 6.48172ZM146.959 4.73929C147.029 4.6696 148.498 4.94838 148.673 5.05293C148.743 5.08778 148.673 5.15747 148.638 5.15747C148.638 5.15747 147.869 5.33172 146.959 4.73929ZM176.762 22.6514C176.727 22.5817 176.237 21.0832 176.237 20.9438C176.342 20.8741 177.146 21.8499 177.216 21.9893C177.461 22.4075 177.636 23.2787 177.636 23.3484C177.531 23.3135 176.937 22.8954 176.797 22.6514" fill="#003A70"/>
<path id="Vector_12" d="M164.274 42.2363C164.274 42.7939 164.379 43.003 164.554 43.3863C164.938 44.153 165.988 46.209 166.303 50.7393C166.419 52.203 166.303 55.0489 165.953 59.2772C165.883 60.6363 165.813 62.3439 167.352 62.3787C167.422 62.4833 167.422 62.6227 167.422 62.7272C168.576 62.5181 169.241 61.5075 170.255 61.0196C173.403 65.2363 180.154 54.0151 180.889 49.1363C180.936 48.811 180.947 48.0792 180.924 46.9408C181.997 48.9156 182.685 49.3802 182.988 48.3348C183.792 45.6514 183.407 43.6651 183.233 42.8287C183.442 43.003 183.582 43.2469 183.792 43.3863C184.317 42.759 184.177 39.8666 183.512 36.1727C183.547 36.1378 183.617 36.0681 183.652 35.9984C183.547 35.3014 182.848 32.4787 182.183 30.9454C182.183 31.108 182.358 31.956 182.708 33.4893C181.309 32.409 180.469 30.7711 179.105 29.656C178.021 28.7499 176.691 28.1924 175.572 27.3211C178.091 24.4287 180.329 28.3317 181.973 31.2242C181.903 30.7711 180.154 26.3454 177.636 25.0211C177.449 24.9282 175.77 25.3348 172.599 26.2408C172.599 26.3105 172.599 26.3802 172.564 26.4499C173.298 27.5302 174.173 28.0181 175.957 28.8545C183.442 32.409 184.667 38.2287 183.652 41.2954C183.582 41.2954 183.512 41.2954 183.477 41.3302C183.373 41.2257 183.093 40.9469 182.288 39.3787C180.539 35.8242 173.858 30.109 173.054 30.9802C173.473 32.0954 174.663 33.0711 176.342 34.4651C179.98 37.4621 185.366 43.5605 182.428 47.359C182.358 47.359 182.288 47.359 182.218 47.359C180.399 45.4424 179.98 42.7939 178.58 40.6681C176.587 37.5666 173.124 34.6393 172.599 34.6045C172.599 34.6393 172.529 34.709 172.494 34.7787C172.494 34.7787 172.949 36.0333 173.683 36.7302C180.609 43.4211 180.679 47.0454 180.679 47.0454C180.504 51.3666 174.558 61.4727 171.514 60.1136C171.829 59.556 176.936 54.8514 176.971 54.8166C177.811 54.3287 177.776 52.5514 177.741 52.5166C177.461 52.5166 177.181 52.6211 176.901 52.656C176.901 52.656 176.691 52.6908 176.482 52.7257C176.342 52.7257 176.167 52.7605 176.097 52.7954C173.928 53.2136 171.549 51.8545 169.521 53.4924C167.317 55.3045 167.562 58.6499 167.667 60.0439C166.897 59.9742 166.792 59.103 167.107 55.6181C168.017 45.3378 165.218 41.3651 164.763 41.1211C164.659 41.1908 164.309 41.3302 164.239 42.2363M168.436 56.7333C168.506 56.5242 168.996 55.3742 170.85 54.8514C171.934 54.5378 174.558 54.8514 174.593 54.8514C174.803 54.8863 174.873 54.8863 175.047 54.8863C175.047 54.956 170.955 59.0681 170.78 58.8939C170.78 58.8939 170.535 58.3711 170.92 56.4196C171.025 55.9318 170.955 55.3045 170.92 55.2696C170.36 54.8515 170.22 58.3014 170.22 58.4408C170.22 58.7196 170.255 59.0333 170.22 59.3121C170.08 59.6605 168.891 60.1484 168.751 60.1833C168.716 60.1484 168.716 60.1484 168.751 60.009C168.856 59.1727 168.821 58.5454 168.681 57.709C168.646 57.4302 168.541 57.1863 168.506 56.8727C168.506 56.8727 168.506 56.803 168.506 56.6984M183.058 33.9772C183.058 33.9772 182.778 32.6878 182.778 32.653C182.778 32.653 182.778 32.6878 182.883 32.9318C182.953 33.1408 183.268 34.1863 183.128 34.2211C183.128 34.2211 183.128 34.1166 183.058 33.9772Z" fill="#003A70"/>
<path id="Vector_13" d="M148.184 62.8318C148.184 63.2848 148.324 63.5984 148.393 63.7727C149.128 65.4106 150.177 65.3757 151.717 64.7136C151.717 64.7136 153.64 63.8424 155.669 62.1348C156.299 61.6121 156.509 60.7409 157.103 60.1833C157.208 61.8909 155.494 63.4242 156.684 65.2015C157.243 66.0378 158.852 65.6545 159.937 64.4C162.56 61.2984 163.015 55.2348 163.679 46.0348C163.679 46.0348 163.749 46 163.784 45.9651C164.227 46.6853 164.519 47.0686 164.659 47.1151C165.603 46.453 163.015 41.4 162.945 41.3651C162.525 41.5394 162.175 42.9681 162.175 43.2121C162.175 44.0136 162.56 44.7454 162.49 45.5469C162.385 47.5681 162.42 49.5545 162.35 51.5757C162.175 54.8863 161.266 59.2075 161.266 59.2424C160.391 63.4242 160.286 63.4591 158.957 63.7727C158.083 63.9818 156.928 64.2606 158.013 60.0091C160.356 50.8439 158.328 47.6378 158.293 47.6378C158.083 47.7424 157.278 49.1712 157.453 50.1121C157.873 52.3772 157.768 58.5454 156.824 59.7651C155.354 61.6121 147.624 65.8287 149.268 60.3575C149.443 59.7303 149.863 58.8242 151.332 56.7333C152.661 54.8863 152.556 54.7818 152.416 54.6075C151.577 54.6075 148.044 59.7651 148.254 62.8666" fill="#003A70"/>
<path id="Vector_14" d="M145.385 10.5591C145.49 10.8378 145.7 11.5697 146.434 12.1272C146.994 12.5454 147.624 13.0681 147.764 13.3469C147.484 13.4515 146.644 13.3469 146.924 13.6606C146.924 13.6606 149.653 15.0894 149.862 14.9848C150.002 14.5318 150.387 13.3469 146.574 10.7681C146.364 10.6288 146.236 10.5242 146.19 10.4545C146.819 8.4333 157.208 4.8439 160.636 11.3257C160.916 11.8833 161.126 12.7894 161.231 13.4863C161.301 13.8348 161.72 13.8697 161.72 13.8697C161.72 13.8697 162.21 10.9075 158.153 8.25906C156.788 7.38784 153.675 6.0636 150.737 6.76057C150.667 6.76057 144.615 8.25906 145.315 10.5591M153.22 6.69087C153.22 6.69087 153.325 6.65603 153.395 6.69087C153.325 6.69087 153.325 6.69087 153.29 6.69087" fill="#003A70"/>
<path id="Vector_15" d="M173.229 39.2045C173.229 39.9015 173.229 40.9818 173.403 41.9576C174.138 45.1636 174.593 44.6409 175.677 43.3515C175.747 43.5257 175.887 43.7697 174.558 46.5924C174.103 47.5682 174.558 47.5682 174.628 47.4636C174.628 47.4636 175.887 46.0348 176.167 45.2333C176.726 43.6303 176.167 40.4939 175.362 40.9121C174.803 41.2257 174.873 42.097 174.208 42.2712C174.138 42.0273 174.173 41.3303 174.173 41.3303C174.173 41.0167 174.208 40.4939 173.718 39.2742C173.578 38.9606 173.298 39.1 173.263 39.1348V39.2045" fill="#003A70"/>
<path id="Vector_16" d="M144.266 3.58935C144.686 3.58935 145.105 3.58935 145.49 3.58935C145.735 3.58935 145.91 3.58935 146.085 3.58935L147.589 3.69389C146.505 3.4848 144.511 3.27571 143.531 3.4848L144.231 3.58935H144.266ZM147.554 3.65904C148.918 3.90298 150.282 3.97268 151.611 4.25147C152.206 4.35601 152.766 4.49541 153.291 4.6348L154.62 4.98329C169.906 9.54844 177.251 20.3515 180.295 26.3803C180.784 27.4606 181.449 28.8893 181.869 29.9696C170.116 4.11208 147.764 3.6242 147.554 3.65904Z" fill="#003A70"/>
<path id="Vector_17" d="M167.387 16.1C167.422 16.1 167.527 15.9955 167.737 15.8909C168.576 15.4379 168.437 15.1242 168.332 14.8803C168.122 14.3576 167.422 13.9046 167.177 14.1833C166.827 14.5318 167.247 14.6015 167.247 14.6015C167.352 14.6015 167.422 14.4273 167.562 14.497C167.702 14.5667 167.877 14.7758 167.982 14.95C168.087 15.1242 167.982 15.403 167.772 15.6121C167.702 15.6818 167.632 15.7167 167.562 15.7515C167.422 15.8212 167.282 15.9258 167.247 15.9258L167.422 16.1349L167.387 16.1Z" fill="#0091B3"/>
<path id="Vector_18" d="M167.597 40.7029C167.597 41.6555 167.632 42.1433 167.702 42.1666C167.702 42.1666 167.842 42.0969 168.122 41.9226C168.355 41.7832 168.763 41.5277 169.346 41.156C169.521 41.0863 169.661 40.9817 169.801 40.8772C169.87 41.1908 169.276 42.2711 168.087 44.1181C168.017 44.2342 167.97 44.3039 167.947 44.3272C168.611 44.0135 169.766 43.3514 170.115 42.5848C170.71 41.156 170.78 38.7863 170.325 38.6817C169.905 38.5423 168.436 39.5181 167.842 39.9363C167.527 40.1454 167.527 40.4938 167.527 40.6332" fill="#0091B3"/>
<path id="Vector_19" d="M155.704 12.9287C155.704 12.9635 155.739 12.9984 155.774 12.9984C156.159 13.3469 159.272 13.9393 159.307 13.9393C159.552 13.9393 159.937 13.1378 159.937 13.1378C159.937 13.1378 159.937 13.0681 158.502 12.7196C157.068 12.3711 157.068 12.3363 157.068 12.3363C157.208 12.162 157.278 12.162 159.937 11.9529C159.867 11.9181 157.908 11.2908 157.243 11.4302C156.544 11.5696 155.669 12.4757 155.739 12.859C155.739 12.8938 155.739 12.9287 155.739 12.9287" fill="#0091B3"/>
<path id="Vector_20" d="M168.856 19.4455C168.903 19.5616 169.486 20.4444 170.605 22.0939C170.815 22.4076 170.955 22.5818 171.13 22.6864C171.34 22.7909 172.144 23.1045 172.214 23.0697C172.214 23 172.214 22.9303 170.535 20.4212C170.535 20.4212 170.5 20.3515 170.465 20.3167C171.62 21.0833 173.264 22.9652 173.299 22.9652C173.369 23.0697 173.404 23.0697 173.473 23.1045C173.473 23.0349 172.354 21.0833 171.48 20.3864C170.64 19.6894 168.961 19.0273 168.821 19.2364C168.786 19.3061 168.821 19.3758 168.821 19.4455" fill="#0091B3"/>
<path id="Vector_21" d="M149.023 11.7439C149.093 11.8833 149.198 11.9878 149.268 12.0575C150.142 12.7545 151.472 11.8484 151.367 11.3606C151.262 10.7681 149.723 10.7333 150.317 10.35C151.542 9.54844 153.64 9.06056 154.48 8.88632C154.76 8.81662 155.074 8.88632 155.319 8.71208C155.214 8.36359 152.591 8.88632 152.556 8.88632C152.416 8.88632 152.066 8.99086 151.786 9.06056C151.751 9.06056 151.681 9.06056 151.647 9.09541C150.632 9.40905 150.142 9.86208 149.967 10.0015C149.863 10.106 149.758 10.1757 149.688 10.1757C149.583 10.1757 149.443 10.0712 149.233 9.93177C149.163 9.86208 148.918 9.72268 148.778 10.0015C148.743 10.0712 148.743 10.1409 148.778 10.1757C148.813 10.4545 149.198 10.3848 149.268 10.6636C149.338 11.0121 148.953 11.2212 149.023 11.5697C149.023 11.5697 149.023 11.6393 149.023 11.6742M149.653 11.3606C149.618 11.2909 149.583 10.8727 149.793 10.9424C149.828 10.9424 150.667 11.3606 150.737 11.4651C150.877 11.6393 150.352 11.709 150.142 11.6742C149.898 11.6393 149.723 11.5 149.618 11.3606" fill="#0091B3"/>
<path id="Vector_22" d="M138.599 30.353C138.599 30.353 138.599 30.3879 138.669 30.4924C140.628 32.897 142.237 34.1167 142.552 34.3258C143.426 34.9879 144.336 35.4409 145.245 35.6848C145.42 35.7197 145.525 35.7545 145.525 35.7894C145.875 36.103 144.79 36.5212 145.175 36.6955C145.175 36.6955 145.7 36.9045 145.945 36.8697C146.365 36.8 146.33 36.103 146.889 36.1727C147.519 36.2424 147.904 36.3121 148.288 36.1727C148.288 36.1727 148.323 36.1727 148.358 36.1727C148.988 35.9636 149.058 35.5454 149.058 35.4061C149.128 34.4303 147.169 33.4197 146.399 34.047C146.12 34.2909 146.015 34.5697 145.875 34.9879C145.805 35.197 145.77 35.3015 145.595 35.3015C145.42 35.3015 144.441 34.7439 143.846 34.3606C141.922 33.1061 139.264 30.6667 139.229 30.6667C138.739 30.2136 138.459 29.9697 138.494 30.353M146.889 35.6151C146.889 35.5454 147.099 34.8136 147.309 34.5C147.414 34.3258 147.589 34.4303 147.659 34.5C147.764 34.5697 147.904 34.7091 147.939 34.7788C148.358 35.5455 147.309 35.7894 146.994 35.6848C146.994 35.6848 146.924 35.6848 146.924 35.6151" fill="#0091B3"/>
<path id="Vector_23" d="M141.257 12.9984C141.257 12.9984 141.292 13.1726 141.362 13.2423C141.607 13.5211 142.132 13.2423 142.237 13.6605C142.307 14.0438 142.377 14.2878 142.621 14.5317C143.461 15.2635 144.51 14.6014 144.475 13.6605C144.44 12.859 143.951 12.859 143.076 12.7893C142.901 12.7893 142.761 12.7893 142.691 12.7196C142.517 12.615 143.041 10.9423 145.035 8.67717C145.35 8.29383 145.35 8.25899 145.35 8.22414C145.07 8.11959 143.776 9.40899 143.321 9.96656C142.377 11.0469 142.237 11.8484 142.202 12.4408C142.202 12.5802 142.202 12.6499 142.132 12.6847C141.852 12.9635 141.502 12.406 141.257 12.7196C141.257 12.7196 141.222 12.7893 141.257 12.9287M142.656 13.5908C142.656 13.4863 142.761 13.4514 142.831 13.4514C142.831 13.4514 143.776 13.4514 143.916 13.556C143.916 13.556 143.951 13.556 143.951 13.5908C144.126 13.7999 143.636 14.1832 143.251 14.1135C142.901 14.0438 142.691 13.6953 142.656 13.5908Z" fill="#0091B3"/>
<path id="Vector_24" d="M154.06 5.05295C154.13 5.05295 154.235 5.12265 154.235 5.12265C154.235 5.12265 154.27 5.12265 154.305 5.12265C154.281 5.12265 154.223 5.09941 154.13 5.05295C154.13 5.05295 154.165 5.05295 154.2 5.05295C154.2 5.05295 154.689 5.19234 154.794 5.26204C154.969 5.40143 155.214 5.33174 155.424 5.40143C155.424 5.40143 155.459 5.40143 155.494 5.40143C155.914 5.54083 156.298 5.74992 156.718 5.88931C157.348 6.0984 158.012 6.2378 158.642 6.44689L158.047 6.20295L157.873 6.13325C156.963 5.85446 156.24 5.62214 155.704 5.43628C155.704 5.43628 153.955 4.87871 153.815 4.91356C153.815 4.91356 153.815 4.9484 154.095 5.0878" fill="#003A70"/>
<path id="Vector_25" d="M140.348 27.1818C140.348 27.3212 140.418 27.4258 140.488 27.4955C140.488 27.4955 141.083 28.053 142.027 28.0182C142.097 28.0182 142.237 28.0182 142.307 27.9833C142.797 27.844 143.251 27.6349 143.741 27.5303C144.091 27.4606 144.406 27.3909 144.72 27.3561C144.755 27.3561 144.86 27.3561 144.93 27.2515C144.93 27.1818 144.231 26.903 143.706 26.9379C143.391 26.9379 142.237 27.3212 141.817 27.4955C141.327 27.7046 141.362 27.3212 141.432 27.0773C141.607 26.45 142.307 26.3803 142.797 26.3455C144.266 26.2061 144.895 25.9621 144.825 25.8924C144.825 25.8924 144.441 25.3697 143.741 25.544C142.377 25.8924 141.502 25.7182 141.362 25.0909C141.188 24.3243 141.747 24.3591 143.531 24.4636C144.161 24.4985 144.196 24.4636 144.266 24.4636C144.511 24.2894 144.266 24.15 143.636 24.0106C143.286 23.9409 142.936 24.0803 142.587 24.0106C142.307 24.0106 142.027 23.9409 141.747 23.9409C141.677 23.9409 141.572 23.9409 141.467 23.9409C141.362 23.9409 141.153 23.9409 140.908 24.0455C140.033 24.3939 140.278 25.1258 140.383 25.2652C140.558 25.5439 140.908 25.6833 141.048 25.753C141.281 25.846 141.409 25.9041 141.432 25.9273C141.456 25.9505 141.386 25.9854 141.222 26.0318C140.313 26.4152 140.313 27.0424 140.348 27.2167" fill="#0091B3"/>
<path id="Vector_26" d="M147.693 39.7969C147.693 39.9363 147.763 40.0408 147.798 40.0757C148.008 40.3893 148.463 40.703 149.233 40.3196C149.466 40.2035 149.594 40.1454 149.617 40.1454C149.617 40.1802 149.617 40.1802 149.617 40.2848C149.303 41.0166 149.687 41.7484 150.072 41.853C150.632 41.9924 151.506 41.5393 151.856 40.7378C151.996 40.3893 152.136 40.006 152.311 39.6227C152.451 39.309 152.731 39.0302 152.835 38.7166C152.835 38.7166 152.94 38.4727 152.696 38.5772C152.206 38.7863 151.681 38.9954 151.087 40.9469C150.912 41.4696 150.667 41.1211 150.562 40.9469C150.352 40.6333 150.317 40.3196 150.457 39.9711C150.527 39.7969 150.597 39.6924 150.807 39.4136C151.471 38.5424 151.786 37.6711 151.751 37.6014C151.436 37.6014 150.877 37.7408 150.702 38.2636C150.492 38.8908 149.827 39.6227 149.407 39.6575C149.023 39.6924 148.043 39.3787 148.813 38.4727C149.163 38.0545 149.652 37.7408 149.967 37.2878C150.282 36.8348 150.107 36.7999 150.002 36.7999C149.967 36.7999 149.477 37.0439 149.338 37.1833C149.128 37.3924 149.023 37.6363 148.813 37.8454C148.393 38.2403 148.16 38.461 148.113 38.5075C148.078 38.5424 148.043 38.612 148.008 38.6469C147.659 39.0651 147.659 39.553 147.693 39.7272" fill="#0091B3"/>
<path id="Vector_27" d="M138.179 38.1939C138.179 38.2288 138.179 38.2636 138.214 38.2985C138.389 38.7864 138.634 38.8212 139.543 38.9606C139.648 38.9606 139.648 39.0303 139.543 39.1348C138.634 39.9364 139.194 40.703 139.194 40.7379C139.508 41.1212 140.348 41.1212 140.698 40.9818C140.838 40.947 140.943 40.8773 141.013 40.8076C141.502 40.4939 141.922 40.1106 142.412 39.7621C142.657 39.5879 142.936 39.553 143.146 39.3091C143.076 39.1697 142.027 38.8909 140.558 40.3894C140.418 40.5636 140.243 40.7379 140.103 40.5288C140.103 40.4939 139.613 39.5879 140.978 39.0303C141.957 38.647 142.657 38.0894 142.692 38.0894C142.831 37.9848 142.657 37.9151 142.482 37.8803C142.097 37.7757 141.922 37.7061 141.572 37.95C141.572 37.95 140.068 39.1 139.368 38.2985C139.368 38.2985 138.914 37.7758 139.473 37.3924C139.648 37.253 139.788 37.2182 140.278 37.1136C141.071 36.9045 141.491 36.8 141.537 36.8C141.782 36.6954 141.887 36.4864 141.782 36.4515C141.782 36.4515 141.432 36.347 141.117 36.4167L138.879 37.1136C138.564 37.253 138.144 37.7061 138.249 38.2636" fill="#0091B3"/>
<path id="Vector_28" d="M168.052 48.4742C168.052 48.4742 168.063 48.7065 168.087 49.1711C168.087 49.2757 168.192 49.2757 168.261 49.1711C168.331 49.055 168.74 48.5206 169.486 47.5681C171.025 45.5818 171.969 44.3272 171.969 44.2924C172.389 43.6651 172.214 42.9333 172.074 42.9681C172.039 42.9681 168.331 47.8818 168.296 47.9166C168.052 48.2302 168.052 48.4045 168.017 48.4742" fill="#0091B3"/>
<path id="Vector_29" d="M135.521 42.4454L142.027 43.3515C142.097 43.3515 142.237 43.3515 142.237 43.3515C143.077 43.3515 143.286 42.7591 143.251 42.7242C143.147 42.5151 136.675 41.6439 136.605 41.6439C135.941 41.6439 135.626 42.097 135.521 42.3757C135.521 42.4454 135.521 42.4803 135.521 42.4803" fill="#0091B3"/>
<path id="Vector_30" d="M157.208 42.0272C157.231 42.2363 157.593 42.5964 158.292 43.1075C158.537 43.2817 158.817 44.5711 158.747 45.8257C158.782 45.8954 158.887 45.8954 158.922 45.8257C159.587 44.8151 159.517 43.5605 160.111 42.5151C160.181 42.3757 160.461 42.0272 160.776 42.759C161.021 43.3166 161.266 42.2363 161.266 42.2014C161.371 41.7136 160.846 41.1211 160.461 41.3302C160.251 41.4696 159.796 41.8878 159.342 43.3166C159.225 43.6418 159.167 43.7928 159.167 43.7696V43.6999C159.167 43.6302 159.167 43.4908 158.957 42.7939C158.572 41.4348 158.152 41.2605 157.943 41.1908C157.488 40.9817 157.208 41.9226 157.208 42.062" fill="#0091B3"/>
<path id="Vector_31" d="M159.866 8.95605L160.006 9.0606C160.286 9.23484 160.461 9.33938 160.706 9.23484C160.823 9.18837 160.892 9.02575 160.916 8.74696C160.939 8.46817 161.172 8.67726 161.615 9.37423C162.21 9.96666 162.595 10.1757 162.7 10.2454C162.945 10.35 163.12 10.2454 162.98 10.0712C162.945 10.0364 162.875 9.96666 162.84 9.93181C162.525 9.65302 162.14 9.51363 161.825 9.23484C161.441 8.9212 161.161 8.46817 160.776 8.15454C160.776 8.15454 160.671 8.08484 160.601 8.08484C160.601 8.08484 160.566 8.22423 160.601 8.50302C160.671 8.74696 160.601 9.02575 160.356 8.9212C160.216 8.85151 160.076 8.78181 160.006 8.71211C159.831 8.57272 159.796 8.53787 159.727 8.53787C159.552 8.53787 159.622 8.74696 159.936 8.9909" fill="#0091B3"/>
<path id="Vector_32" d="M133.422 26.2757C133.597 26.4499 134.087 26.5893 134.926 26.7287C135.836 26.903 136.326 26.9727 136.85 27.2515C137.025 27.356 137.305 27.6696 136.64 27.9833C136.326 28.1227 136.465 28.2272 136.5 28.2621C136.5 28.2621 136.745 28.4015 137.06 28.4712C137.515 28.6105 138.144 28.1227 138.074 27.7045C138.074 27.7045 137.83 26.8681 135.731 26.4848C135.614 26.4616 135.544 26.4383 135.521 26.4151C135.498 26.3919 135.568 26.357 135.731 26.3105C137.515 25.6833 137.83 25.3696 138.04 24.9863C138.354 24.4636 137.515 23.9757 136.955 24.3242C136.465 24.6378 136.395 25.3348 135.801 25.5787C135.136 25.8575 134.472 26.0318 133.667 26.1015C133.492 26.1015 133.352 26.1015 133.387 26.2757" fill="#0091B3"/>
<path id="Vector_33" d="M155.914 9.26962C155.949 9.33932 156.019 9.40901 156.054 9.40901C156.299 9.65295 156.649 9.79235 156.928 10.0014C157.208 10.1757 157.103 10.2802 157.068 10.3499C157.033 10.4196 156.998 10.4196 157.068 10.4545C157.208 10.559 157.243 10.5242 157.348 10.2802C157.523 9.96659 157.628 9.72265 157.593 9.40901C157.488 8.74689 156.089 8.43325 155.844 8.74689C155.774 8.85144 155.774 9.02568 155.949 9.23477M156.264 9.19992C156.194 9.13022 156.264 9.09538 156.579 9.16507C156.823 9.16507 156.963 9.23477 157.138 9.37416C157.348 9.54841 157.278 9.72265 157.208 9.72265C157.103 9.72265 156.334 9.30447 156.264 9.23477" fill="#0091B3"/>
<path id="Vector_34" d="M173.893 20.6651V20.7C173.963 20.7929 174.173 20.8161 174.523 20.7697C174.768 20.7697 174.873 20.7348 174.908 20.5954C175.013 20.1772 173.788 18.8181 173.509 18.9924C173.404 19.0621 173.474 19.306 173.474 19.306C173.474 19.306 173.474 19.3757 173.474 19.4106C173.578 19.7242 173.788 20.0727 173.893 20.2121C174.033 20.4212 174.033 20.4909 174.033 20.4909C174.033 20.5954 174.033 20.5606 173.998 20.5606C173.998 20.5606 173.823 20.5606 173.858 20.6651M173.893 19.5848C173.858 19.4803 173.823 19.4454 173.893 19.4454C173.963 19.4454 174.348 19.7939 174.488 20.0727C174.663 20.3515 174.593 20.4212 174.558 20.456C174.418 20.4909 173.928 19.5848 173.928 19.5848" fill="#0091B3"/>
<path id="Vector_35" d="M172.739 28.7499C172.844 28.9242 174.033 30.7015 174.488 31.1545C174.698 31.3636 175.047 31.503 175.187 31.1545C175.537 30.109 174.383 28.5757 173.718 28.8893C173.578 28.959 173.543 29.1333 173.368 29.1681C173.333 29.1681 173.264 29.203 173.124 29.0636C173.019 28.9242 172.949 28.7499 172.809 28.6454C172.739 28.6105 172.704 28.6454 172.739 28.7499ZM173.928 30.0393C173.928 29.9696 174.033 29.7605 174.278 29.5515C174.383 29.4818 174.453 29.4818 174.523 29.6212C174.593 29.7954 174.698 30.6666 174.348 30.5272C174.208 30.4575 173.928 30.109 173.928 30.0393Z" fill="#0091B3"/>
<path id="Vector_36" d="M144.895 15.4727C144.965 15.647 145.035 15.7515 145.14 15.8561C145.245 15.9606 145.35 16.0652 145.525 16.1697C145.875 16.3439 146.225 16.4136 146.749 16.3788C146.924 16.3788 146.959 16.3788 147.029 16.3788C147.099 16.4136 147.134 16.4485 147.169 16.6576C147.169 16.8318 147.204 16.8667 147.274 16.9015C147.344 16.9015 147.519 16.9015 147.519 16.797C147.519 16.7273 147.134 15.5076 147.064 15.3333C146.959 15.0894 146.819 14.8106 146.609 14.6364C146.085 14.2182 145.35 14.3924 145 14.8106C144.825 15.0197 144.79 15.2288 144.86 15.4379M145.525 15.5773C145.525 15.4727 145.875 15.1939 146.015 15.1591C146.19 15.0894 146.4 15.0894 146.574 15.1591C146.574 15.1591 146.609 15.1591 146.679 15.2288C146.714 15.2636 146.924 15.5773 146.819 15.647C146.784 15.647 146.05 15.6818 146.05 15.6818C145.84 15.6818 145.595 15.6818 145.56 15.5424" fill="#0091B3"/>
<path id="Vector_37" d="M162.49 12.5454C162.63 12.65 162.665 12.65 163.19 12.1621C163.33 12.0227 163.504 11.8136 163.469 11.5697C163.4 11.0818 162.455 10.4197 162.175 10.7681C162.035 10.9424 162.07 11.1863 162.28 11.1863C162.28 11.1863 162.28 11.1863 162.385 11.0818C162.42 11.0121 162.455 10.9772 162.56 11.0121C162.77 11.0818 162.98 11.2909 163.05 11.3954C163.155 11.6045 163.085 11.9181 162.84 12.1621C162.77 12.2318 162.665 12.3015 162.56 12.3712C162.56 12.3712 162.49 12.4409 162.525 12.4757" fill="#0091B3"/>
<path id="Vector_38" d="M153.675 10.5939C153.675 10.5939 153.885 10.803 153.92 10.5939C153.92 10.5242 153.92 10.4197 153.99 10.3151C154.025 10.2454 154.06 10.2454 154.2 10.2454C154.375 10.2454 154.619 10.4197 154.724 10.5939C154.794 10.6985 155.004 11.1864 154.584 12.197C154.584 12.2667 154.584 12.2667 154.584 12.3015C154.759 12.4409 154.794 12.3364 154.899 12.0227C155.144 11.2909 155.179 10.9076 155.144 10.6985C155.074 9.96666 154.06 9.51363 153.745 9.89696C153.535 10.1758 153.64 10.5939 153.64 10.5939" fill="#0091B3"/>
<path id="Vector_39" d="M141.537 31.3287C141.537 31.4332 141.607 31.5029 141.642 31.5378C142.027 31.9908 143.601 32.0605 143.636 31.7469C143.636 31.6075 143.531 31.6075 143.216 31.5726C142.132 31.5029 142.727 30.9105 142.762 30.8757C143.076 30.562 144.161 30.3878 146.155 30.806C146.33 30.8408 146.365 30.6317 146.295 30.562C146.295 30.562 143.042 29.6908 141.922 30.4923C141.642 30.7014 141.467 31.0151 141.537 31.2939" fill="#0091B3"/>
<path id="Vector_40" d="M162.49 8.50297C162.49 8.50297 162.49 8.50297 162.525 8.50297C162.63 8.57267 162.63 8.57267 162.63 8.53782C162.63 8.43327 162.49 8.22418 161.825 7.84085L160.881 7.38782C160.951 7.45751 161.231 7.63176 161.336 7.6666C161.336 7.63176 161.266 7.59691 161.231 7.59691C161.371 7.59691 162.455 8.18933 162.42 8.46812" fill="#003A70"/>
<path id="Vector_41" d="M165.533 10.0711C165.603 10.1408 165.673 10.1757 165.708 10.2105C165.778 10.2454 165.953 10.3848 166.128 10.4545C166.198 10.4545 166.233 10.4893 166.303 10.5242C166.303 10.5242 166.128 10.3848 166.093 10.3848C165.988 10.3499 165.393 9.93175 165.393 9.8969C165.393 9.8969 165.393 9.8969 165.498 9.93175L165.218 9.7575C165.148 9.72266 165.148 9.72266 165.113 9.72266C165.113 9.7575 165.113 9.79235 165.533 10.0711Z" fill="#003A70"/>
<path id="Vector_42" d="M158.013 6.16809L158.607 6.41202C159.097 6.58627 159.552 6.79536 160.042 6.9696C160.042 6.9696 158.747 6.37718 157.838 6.09839L158.013 6.16809Z" fill="#003A70"/>
<path id="Vector_43" d="M161.86 7.87576C161.406 7.63182 160.951 7.42273 160.916 7.42273L161.86 7.87576Z" fill="#003A70"/>
<path id="Vector_44" d="M165.498 9.93181C165.498 9.93181 165.568 9.96666 165.603 9.96666C165.393 9.8505 165.277 9.7808 165.253 9.75757L165.533 9.93181H165.498Z" fill="#003A70"/>
</g>
<path id="Vector_45" d="M105.088 60.2879H106.872V51.3319H105.088V60.2879ZM101.94 58.9288C101.625 59.1031 101.241 59.2076 100.891 59.2076C100.366 59.2076 100.016 58.9637 100.016 58.441C100.016 57.9182 100.506 57.6743 101.311 57.6743H101.975V58.9288H101.94ZM102.045 59.7304L102.15 60.3228H103.934L103.689 58.8243V56.0713C103.689 54.4334 102.64 53.9455 101.066 53.9455C99.4916 53.9455 99.1768 54.1546 98.6171 54.3637V55.8273C99.2467 55.6531 100.086 55.5137 100.751 55.5137C101.415 55.5137 101.905 55.6879 101.905 56.4198V56.8728H101.206C99.4216 56.8728 98.1974 57.5001 98.1974 58.7546C98.1974 60.0092 98.9319 60.4273 100.016 60.4273C101.101 60.4273 101.59 60.044 102.01 59.7304M92.7406 54.0501V55.4788H93.8599V58.2667C93.8599 59.591 94.6994 60.4273 95.9937 60.4273C97.2879 60.4273 97.3928 60.3576 97.8126 60.1834V58.8591C97.4978 58.9288 97.113 58.9985 96.7632 58.9985C96.0986 58.9985 95.6439 58.8243 95.6439 57.9879V55.5137H97.7076V54.0849H95.6439V52.4122H93.8599V54.0849H92.7406V54.0501ZM89.3126 54.0501V55.4788H90.1871V60.2879H91.971V54.0501H89.3126ZM90.0471 51.8546C90.0471 52.4819 90.5369 52.7955 91.1665 52.7955C91.7961 52.7955 92.2509 52.4819 92.2509 51.8546C92.2509 51.2273 91.7961 50.9137 91.1665 50.9137C90.5369 50.9137 90.0471 51.2273 90.0471 51.8546ZM84.6603 55.5137C84.9402 55.3743 85.255 55.2698 85.5698 55.2698C86.5492 55.2698 87.0039 55.8622 87.0039 57.047C87.0039 58.2319 86.5842 59.0334 85.185 59.0334C83.7858 59.0334 84.8352 59.0334 84.6603 59.0334V55.5137ZM82.8414 55.5834V63.1455H84.6253V60.3576C84.8702 60.3576 85.15 60.3925 85.3949 60.3925C87.1439 60.3925 88.7879 59.2076 88.7879 56.8728C88.7879 54.5379 87.8784 53.9107 86.3743 53.9107C84.8702 53.9107 85.0101 54.2243 84.4155 54.5728L84.3105 54.0501H82.5616L82.8064 55.5834H82.8414ZM76.755 60.044C77.4546 60.2531 78.2241 60.3925 79.0636 60.3925C80.5328 60.3925 81.862 59.6955 81.862 58.4061C81.862 57.1167 80.7776 56.7334 79.8332 56.5243C79.0986 56.3849 78.469 56.2455 78.469 55.7925C78.469 55.3395 78.8887 55.2698 79.4484 55.2698C80.0081 55.2698 80.6727 55.3394 81.5821 55.7228V54.3288C80.9875 54.0501 80.148 53.9455 79.3784 53.9455C77.9443 53.9455 76.72 54.7122 76.72 55.9667C76.72 57.2213 77.6994 57.6046 78.7138 57.8485C79.4484 58.0228 80.113 58.1622 80.113 58.5804C80.113 58.9985 79.6583 59.1728 79.1336 59.1728C78.6089 59.1728 77.7694 59.0682 76.79 58.7198V60.1137L76.755 60.044ZM74.1665 57.1516C74.1665 58.197 73.8867 59.0334 72.8723 59.0334C71.8578 59.0334 71.578 58.197 71.578 57.1516C71.578 56.1061 71.8928 55.3046 72.8723 55.3046C73.8517 55.3046 74.1665 56.1758 74.1665 57.1516ZM69.7241 57.2561C69.7241 59.347 70.7735 60.3925 72.7323 60.3925C74.6912 60.3925 75.9854 58.9637 75.9854 57.0819C75.9854 55.2001 74.936 53.9107 72.9072 53.9107C70.8784 53.9107 69.7241 55.3743 69.7241 57.291M66.6459 56.9425V60.3228H68.5698V52.3076H66.6459V55.4788H63.043V52.3076H61.0842V60.3228H63.043V56.9425H66.6459ZM52.5142 54.0501V55.4788H53.6336V58.2667C53.6336 59.591 54.4731 60.4273 55.7673 60.4273C57.0616 60.4273 57.1665 60.3576 57.5862 60.1834V58.8591C57.2714 58.9288 56.8867 58.9985 56.5369 58.9985C55.8723 58.9985 55.4175 58.8243 55.4175 57.9879V55.5137H57.4813V54.0849H55.4175V52.4122H53.6336V54.0849H52.5142V54.0501ZM47.0225 60.044C47.722 60.2531 48.4916 60.3925 49.3311 60.3925C50.8002 60.3925 52.1295 59.6955 52.1295 58.4061C52.1295 57.1167 51.0451 56.7334 50.1007 56.5243C49.3661 56.3849 48.7365 56.2455 48.7365 55.7925C48.7365 55.3395 49.1562 55.2698 49.7159 55.2698C50.2755 55.2698 50.9402 55.3394 51.8496 55.7228V54.3288C51.255 54.0501 50.4155 53.9455 49.6459 53.9455C48.2118 53.9455 46.9875 54.7122 46.9875 55.9667C46.9875 57.2213 47.9669 57.6046 48.9813 57.8485C49.7159 58.0228 50.3805 58.1622 50.3805 58.5804C50.3805 58.9985 49.9258 59.1728 49.4011 59.1728C48.8764 59.1728 48.0369 59.0682 47.0574 58.7198V60.1137L47.0225 60.044ZM43.2797 54.0501V55.4788H44.1541V60.2879H45.9381V54.0501H43.2797ZM43.9793 51.8546C43.9793 52.4819 44.469 52.7955 45.0986 52.7955C45.7282 52.7955 46.183 52.4819 46.183 51.8546C46.183 51.2273 45.7282 50.9137 45.0986 50.9137C44.469 50.9137 43.9793 51.2273 43.9793 51.8546ZM40.6212 60.2879H42.4052V51.3319H40.6212V60.2879ZM37.4731 58.9288C37.1583 59.1031 36.7735 59.2076 36.4237 59.2076C35.899 59.2076 35.5492 58.9637 35.5492 58.441C35.5492 57.9182 36.0389 57.6743 36.8434 57.6743H37.5081V58.9288H37.4731ZM37.578 59.7304L37.683 60.3228H39.4669L39.222 58.8243V56.0713C39.222 54.4334 38.1727 53.9455 36.5986 53.9455C35.0245 53.9455 34.7097 54.1546 34.15 54.3637V55.8273C34.7797 55.6531 35.6192 55.5137 36.2838 55.5137C36.9484 55.5137 37.4381 55.6879 37.4381 56.4198V56.8728H36.7385C34.9546 56.8728 33.7303 57.5001 33.7303 58.7546C33.7303 60.0092 34.4648 60.4273 35.5492 60.4273C36.6336 60.4273 37.1233 60.044 37.543 59.7304M30.1974 54.0501V55.4788H31.0718V60.2879H32.8558V54.0501H30.1974ZM30.8969 51.8546C30.8969 52.4819 31.3867 52.7955 32.0163 52.7955C32.6459 52.7955 33.1006 52.4819 33.1006 51.8546C33.1006 51.2273 32.6459 50.9137 32.0163 50.9137C31.3867 50.9137 30.8969 51.2273 30.8969 51.8546ZM24.6007 57.3258C24.6007 59.2773 25.6151 60.4273 27.6439 60.4273C29.6727 60.4273 29.2179 60.2879 29.6727 60.044V58.6849C29.2179 58.8591 28.7632 58.9637 28.3085 58.9637C27.1891 58.9637 26.4196 58.4061 26.4196 57.1516C26.4196 55.897 27.2241 55.444 28.1686 55.444C29.113 55.444 29.148 55.5137 29.6727 55.7576V54.1895C29.2179 53.9804 28.6233 53.9107 27.8537 53.9107C25.755 53.9107 24.6007 55.4091 24.6007 57.3258ZM19.7735 56.6637C19.8784 55.6879 20.3681 55.3046 20.9978 55.3046C21.6274 55.3046 22.0472 55.8273 22.1171 56.6637H19.8085H19.7735ZM18.0245 57.3258C18.0245 59.4167 19.1788 60.4273 21.2076 60.4273C23.2365 60.4273 23.1315 60.2879 23.7611 59.9743V58.7198C23.1315 58.9288 22.327 59.0334 21.6274 59.0334C20.613 59.0334 19.9484 58.6152 19.8085 57.6046H23.936V57.0122C23.936 55.1304 22.9566 53.9107 20.9978 53.9107C19.0389 53.9107 18.0245 55.2698 18.0245 57.3258ZM13.1624 55.5137C13.4422 55.3743 13.757 55.2698 14.0718 55.2698C15.0513 55.2698 15.506 55.8622 15.506 57.047C15.506 58.2319 15.0862 59.0334 13.6871 59.0334C12.2879 59.0334 13.3373 59.0334 13.1624 59.0334V55.5137ZM11.3784 55.5834V63.1455H13.1624V60.3576C13.4072 60.3576 13.6871 60.3925 13.9319 60.3925C15.6809 60.3925 17.3249 59.2076 17.3249 56.8728C17.3249 54.5379 16.4155 53.9107 14.9114 53.9107C13.4072 53.9107 13.5472 54.2243 12.9525 54.5728L12.8476 54.0501H11.0986L11.3434 55.5834H11.3784ZM4.6274 58.3713V59.9395C5.43193 60.2531 6.27143 60.4273 7.11094 60.4273C8.85991 60.4273 10.329 59.6607 10.329 57.9182C10.329 56.1758 8.96485 55.7925 7.77555 55.444C6.79612 55.1304 6.34139 54.9213 6.34139 54.3985C6.34139 53.8758 7.006 53.6319 7.67061 53.6319C8.33522 53.6319 9.48954 53.8758 10.0142 54.2243V52.6213C9.48954 52.3425 8.54509 52.0985 7.49571 52.0985C5.92164 52.0985 4.52246 53.0046 4.52246 54.6076C4.52246 56.2107 5.39695 56.5591 6.51629 56.9425C7.56567 57.3258 8.54509 57.4652 8.54509 58.1273C8.54509 58.7895 8.0204 58.9637 7.28584 58.9637C6.55127 58.9637 5.25703 58.6849 4.6274 58.3713Z" fill="#0091B3"/>
<path id="Vector_46" d="M103.094 43.247C103.199 42.2712 103.689 41.8879 104.319 41.8879C104.948 41.8879 105.368 42.4106 105.438 43.247H103.129H103.094ZM101.345 43.8743C101.345 45.9652 102.5 46.9758 104.529 46.9758C106.557 46.9758 106.452 46.8364 107.082 46.5228V45.2682C106.452 45.4773 105.648 45.5819 104.948 45.5819C103.934 45.5819 103.269 45.1637 103.129 44.1531H107.257V43.5606C107.257 41.6788 106.278 40.4591 104.319 40.4591C102.36 40.4591 101.345 41.8182 101.345 43.8743ZM94.9093 49.694H96.7282L97.8825 46.5228L100.156 40.5985H98.3023L96.8681 45.0243H96.7982L96.4134 43.6652L95.5389 40.6334H93.5801L95.7488 46.8712H96.1336L94.9093 49.6591H94.9443L94.9093 49.694ZM86.5492 38.8561V46.8712H92.0759V45.4076H88.508V43.5258H91.3764V42.1319H88.508V40.3546H92.006V38.8909H86.5842L86.5492 38.8561ZM78.6089 45.2682C78.1891 45.4773 77.9093 45.6167 77.5595 45.6167C76.5801 45.6167 76.1253 44.9546 76.1253 43.8046C76.1253 42.6546 76.685 41.8182 77.8743 41.8182C79.0636 41.8182 78.364 41.8182 78.6089 41.8879V45.2682ZM78.7138 46.2091L78.8537 46.8712H80.6727L80.4278 45.4773V37.8803H78.6438V40.5637C78.329 40.494 77.8743 40.4591 77.5595 40.4591C75.9155 40.4591 74.3414 41.7485 74.3414 44.0137C74.3414 46.2788 75.6706 46.9409 76.7899 46.9409C77.9093 46.9409 78.2241 46.5925 78.7488 46.1743M68.3949 43.247C68.4998 42.2712 68.9895 41.8879 69.6192 41.8879C70.2488 41.8879 70.6685 42.4106 70.7385 43.247H68.4299H68.3949ZM66.6459 43.8743C66.6459 45.9652 67.8002 46.9758 69.829 46.9758C71.8578 46.9758 71.7529 46.8364 72.3825 46.5228V45.2682C71.7529 45.4773 70.9484 45.5819 70.2488 45.5819C69.2344 45.5819 68.5698 45.1637 68.4299 44.1531H72.5574V43.5606C72.5574 41.6788 71.578 40.4591 69.6192 40.4591C67.6603 40.4591 66.6459 41.8182 66.6459 43.8743ZM62.6932 46.8712H64.4772V37.9152H62.6932V46.8712ZM58.4607 45.5122C58.1459 45.6864 57.7611 45.7909 57.4113 45.7909C56.8866 45.7909 56.5369 45.547 56.5369 45.0243C56.5369 44.5016 57.0266 44.2576 57.8311 44.2576H58.4957V45.5122H58.4607ZM58.6006 46.2788L58.7056 46.8712H60.4895L60.2447 45.3728V42.6197C60.2447 40.9819 59.1953 40.494 57.6212 40.494C56.0471 40.494 55.7323 40.7031 55.1727 40.9122V42.3758C55.8023 42.2016 56.6418 42.0622 57.3064 42.0622C57.971 42.0622 58.4957 42.2364 58.4957 42.9682V43.4212H57.7961C56.0122 43.4212 54.7879 44.0485 54.7879 45.3031C54.7879 46.5576 55.5224 46.9758 56.6068 46.9758C57.6912 46.9758 58.1809 46.5925 58.6006 46.2788ZM51.0101 43.5258V46.8712H52.7941V42.794C52.7941 41.1561 52.0245 40.5288 50.8352 40.5288C49.6459 40.5288 49.2611 40.8425 48.7015 41.2258V37.9152H46.9175V46.8712H48.7015V42.4106C49.0862 42.2016 49.506 42.0273 49.8908 42.0273C50.7652 42.0273 51.0101 42.4803 51.0101 43.5258ZM40.1665 42.8985L42.9299 46.8712H45.2035L42.0554 42.5152L45.2035 38.8909H43.2447L40.2015 42.6894V42.9334L40.1665 42.8985ZM38.2076 46.8712H40.1665V38.8561H38.2076V46.8712ZM28.5183 46.5576L29.3928 46.6273C30.5122 46.7667 30.722 47.0106 30.722 47.4985C30.722 47.9864 30.0924 48.5788 29.113 48.5788C28.1336 48.5788 27.7138 48.1606 27.7138 47.6728C27.7138 47.1849 28.0286 46.8712 28.5183 46.5228M30.0924 42.55C30.0924 43.1076 29.6727 43.4909 29.078 43.4909C28.4834 43.4909 27.9587 43.1773 27.9587 42.5152C27.9587 41.8531 28.3434 41.5743 28.9731 41.5743C29.6027 41.5743 30.0574 41.8879 30.0574 42.55M28.5883 44.5364C28.7632 44.5364 28.9381 44.5364 29.113 44.5364C30.5122 44.5364 31.9463 43.7349 31.9463 42.5152C31.9463 41.2955 31.8764 41.9228 31.7364 41.6788H32.8208V40.5288L30.8969 40.8773C30.4072 40.6334 29.7426 40.494 29.078 40.494C27.5739 40.494 26.2447 41.3303 26.2447 42.6197C26.2447 43.9091 26.8393 44.0834 27.6089 44.3622L26.4196 45.4425V46.3485L27.2241 46.4182C26.5245 46.8016 25.9299 47.3591 25.9299 48.0212C25.9299 49.1016 27.0142 49.7985 28.8332 49.7985C30.6521 49.7985 32.541 48.6137 32.541 47.2197C32.541 45.8258 31.7714 45.4425 30.0225 45.3379L28.0636 45.1985L28.5883 44.5712V44.5364ZM18.1994 42.1319V46.8364H19.9834V42.3758C20.3681 42.1667 20.7879 41.9925 21.1377 41.9925C22.0122 41.9925 22.257 42.4455 22.257 43.4909V46.8364H24.041V42.7591C24.041 41.1212 23.2714 40.494 22.0821 40.494C20.8928 40.494 20.4031 40.8773 19.7735 41.2955L19.6336 40.6334H17.8846L18.1294 42.1667L18.1994 42.1319ZM13.0574 40.6334V42.0622H13.9319V46.8712H15.7159V40.6334H13.0574ZM13.757 38.4031C13.757 39.0303 14.2467 39.344 14.8764 39.344C15.506 39.344 15.9607 39.0303 15.9607 38.4031C15.9607 37.7758 15.506 37.4622 14.8764 37.4622C14.2467 37.4622 13.757 37.7758 13.757 38.4031ZM6.86607 42.8985L9.62945 46.8712H11.9031L8.75496 42.5152L11.9031 38.8909H9.94426L6.90105 42.6894V42.9334L6.86607 42.8985ZM4.90723 46.8712H6.86607V38.8561H4.90723V46.8712Z" fill="#0091B3"/>
<path id="Vector_47" d="M106.907 19.3061C106.767 19.4803 106.523 19.8636 106.208 20.3515C105.858 20.9091 105.683 21.2576 105.683 21.3621L106.453 27.8439C107.012 26.9727 107.327 25.9621 107.327 24.7076L106.907 19.3061ZM104.284 20.9788C103.899 20.7349 103.514 20.5258 103.13 20.2818C102.605 19.9333 102.325 19.7243 102.255 19.6546C102.15 19.5152 102.115 19.2712 102.115 18.9924C101.73 19.55 101.346 20.2121 100.926 21.0136C101.311 21.3273 101.52 21.5015 101.52 21.5015C101.8 22.7561 101.975 23.6621 102.08 24.2894C102.22 24.9864 102.255 25.4394 102.255 25.6833C102.255 25.9273 102.255 25.9621 102.185 26.1712H99.0719V27.8439H102.675C102.745 27.8439 102.92 27.7742 102.955 27.7742L103.339 25.6833L102.99 22.7909C102.99 22.7212 102.99 22.6515 103.025 22.6167L103.829 21.5712C104.004 21.3273 104.144 21.1879 104.214 21.0136M99.7365 26.1712H99.3517C99.1069 26.1712 98.6521 25.8576 98.5822 25.5091C98.5822 25.5091 98.5822 25.4046 98.5822 25.3L98.7571 23.3485L98.1624 23.9061C97.9176 24.15 97.7427 24.3591 97.6727 24.5682C97.6028 24.7076 97.6028 24.9515 97.6028 25.3349C97.6028 25.7182 97.6028 25.997 97.4628 26.1364H94.0349V27.8091H97.0781L97.6727 26.7985C97.7776 27.0773 97.8826 27.2864 97.9526 27.3561C98.1974 27.6349 98.4423 27.8091 98.7221 27.8091H99.7365V26.1364V26.1712ZM97.6377 19.9682L97.148 20.3864C96.9731 20.5606 96.8332 20.6652 96.7982 20.6652C96.7283 20.6652 96.5534 20.5955 96.0637 20.2818C95.8188 20.1076 95.6789 20.0379 95.6439 20.0379C95.6089 20.0379 95.469 20.1773 95.1892 20.4561C94.9093 20.7349 94.7344 20.9439 94.6645 21.0833C95.0493 21.397 95.434 21.6061 95.7139 21.7106C95.8888 21.7803 95.9937 21.8152 95.9937 21.8152C95.9587 21.8152 96.2036 21.5712 96.7283 21.153C97.4628 21.6061 97.8826 21.8152 98.0225 21.8152C97.9525 21.8152 98.0225 21.7803 98.1974 21.7106C98.5822 21.2576 98.862 20.9439 99.0019 20.7349L97.6377 20.003V19.9682ZM95.1542 26.1712H93.8949C94.0698 25.6136 94.2097 25.1606 94.3497 24.8121C92.6007 24.6727 90.9217 24.2197 89.3126 23.3485C88.9628 23.2439 88.718 23.1743 88.5431 23.1046H88.1583C87.8435 23.1046 87.5986 23.1394 87.4587 23.2091C86.7242 23.5227 86.1995 24.1849 85.8497 25.1955C86.4443 24.847 86.934 24.7076 87.2139 24.7076C87.4937 24.7076 88.0184 24.8818 88.9279 25.1955C89.4526 25.3697 89.6974 25.4742 89.6974 25.4742C89.3826 25.6485 89.1377 25.753 88.9978 25.8227C88.5081 25.997 88.1233 26.1015 87.9135 26.1015H84.0307V27.7742H87.6336C87.7735 27.7742 87.9135 27.7394 88.1233 27.6349C88.8929 27.2167 89.4875 26.903 89.8373 26.6939C90.0122 26.6242 90.2221 26.5546 90.432 26.5197C90.5019 26.5197 90.8167 26.5197 91.4114 26.5197C92.0061 26.5197 92.5657 26.5197 92.6707 26.5894C92.7406 26.8333 92.8106 27.2515 92.8456 27.7742H95.1542V26.1015V26.1712ZM88.2283 20.1773C88.0534 20.3167 87.8435 20.4909 87.5637 20.7697C87.3188 21.0136 87.1789 21.153 87.1789 21.2227C87.1789 21.2924 87.3538 21.4318 87.7735 21.6758C88.1583 21.9197 88.4381 22.0243 88.4731 22.0243C88.613 22.0243 88.9279 21.7455 89.3826 21.1182C89.4526 21.0485 89.4875 20.9439 89.4526 20.8743L88.1583 20.1424L88.2283 20.1773ZM83.576 25.7182C83.576 25.8924 83.1213 26.1015 83.0163 26.1015H78.8188C78.9587 26.0318 79.5184 25.7182 80.4978 25.0909C81.0575 24.7424 81.5122 24.5682 81.897 24.5682C82.2818 24.5682 82.4567 24.7076 82.9114 24.9515C83.3661 25.2303 83.611 25.4743 83.611 25.7182M85.5349 26.1712H84.6254C84.6954 25.997 84.8003 25.753 84.9752 25.4046C85.1151 25.1258 85.22 24.9515 85.22 24.9167C85.22 24.4636 84.8702 24.0106 84.2406 23.5227C83.646 23.0697 83.1563 22.8258 82.7715 22.8258C82.3867 22.8258 81.2674 23.3136 79.6933 24.2894C77.8744 25.4046 76.755 26.0318 76.3353 26.1712H75.8805V27.8439H85.5349V26.1712ZM76.79 26.0318C76.72 26.0318 76.5102 26.1712 76.4402 26.1712C76.2303 26.1712 75.9855 26.0318 75.7756 25.8227C75.7756 25.7879 75.9155 25.3697 76.1604 24.603C76.3003 24.15 76.3702 23.8015 76.3353 23.5576C75.6707 24.2197 75.2159 24.7076 74.9711 25.0561V25.6485C74.8661 25.997 74.7612 26.2061 74.6213 26.2061H71.8929V27.8788H74.0266C74.2015 27.8788 74.4464 27.7046 74.7962 27.2864C74.8661 27.5303 75.1809 27.8788 75.4258 27.8788H76.6501V26.2061C76.72 26.2061 76.79 26.0667 76.79 26.0667M71.4032 25.7182C71.4032 25.8924 70.9484 26.1015 70.8435 26.1015H66.646C66.7859 26.0318 67.3456 25.7182 68.325 25.0909C68.8847 24.7424 69.3394 24.5682 69.7242 24.5682C70.1089 24.5682 70.2838 24.7076 70.7386 24.9515C71.1933 25.2303 71.4381 25.4743 71.4381 25.7182M73.362 26.1712H72.4526C72.5225 25.997 72.6274 25.753 72.8023 25.4046C72.9423 25.1258 73.0472 24.9515 73.0472 24.9167C73.0472 24.4636 72.6974 24.0106 72.0678 23.5227C71.4731 23.0697 70.9834 22.8258 70.5986 22.8258C70.2139 22.8258 69.0945 23.3136 67.5205 24.2894C65.7015 25.4046 64.5822 26.0318 64.1624 26.1712H63.7077V27.8439H73.362V26.1712ZM64.6521 26.0318C64.5822 26.0318 64.3723 26.1712 64.3023 26.1712C64.0925 26.1712 63.8476 26.0318 63.6377 25.8227C63.6377 25.7879 63.7777 25.3697 64.0225 24.603C64.1624 24.15 64.2324 23.8015 64.1974 23.5576C63.5328 24.2197 63.0781 24.7076 62.8332 25.0561V25.6485C62.7283 25.997 62.6233 26.2061 62.4834 26.2061H59.755V27.8788H61.8888C62.0637 27.8788 62.3085 27.7046 62.6583 27.2864C62.7283 27.5303 63.0431 27.8788 63.2879 27.8788H64.5122V26.2061C64.5822 26.2061 64.6521 26.0667 64.6521 26.0667M60.7694 26.1712H59.0904V27.8439H60.7694V26.1712ZM59.4752 26.1712H57.7962V27.8439H59.4752V26.1712ZM58.1809 26.1712H56.5019V27.8439H58.1809V26.1712ZM53.2139 32.7227C52.4793 32.2349 52.0945 31.9909 52.0595 31.9909C52.0246 31.9909 51.9196 32.0955 51.6748 32.3046C51.4649 32.5136 51.325 32.6182 51.29 32.6182C51.255 32.6182 51.0801 32.5136 50.7653 32.3046C50.4505 32.0955 50.2756 31.9909 50.2406 31.9909C50.2056 31.9909 49.9258 32.2697 49.4361 32.7924C50.1357 33.2455 50.5205 33.4894 50.5904 33.4894C50.5904 33.4894 50.8353 33.2803 51.36 32.8273C51.9196 33.2803 52.2694 33.4894 52.3744 33.4894C52.4793 33.4894 52.7242 33.2455 53.1789 32.7227M56.9217 26.1712H53.1789L52.1645 27.9833C52.6542 28.0182 53.1789 28.053 53.6686 28.0879C54.2633 28.2273 54.753 28.5409 55.1028 29.0636L55.0328 29.1333L54.4381 29.2727C54.0884 29.3773 53.7036 29.4818 53.3188 29.5515C52.7591 29.6212 52.3394 29.6909 52.0246 29.6909C51.4299 29.6909 50.8353 29.5515 50.2756 29.3076C49.5061 28.9591 49.1213 28.4712 49.1213 27.8091C49.1213 27.147 49.576 26.4152 50.4505 25.4742C50.5904 25.3349 50.6254 25.1606 50.5904 25.0212C50.1357 25.1955 49.611 25.7182 49.0163 26.6243C48.4217 27.5652 48.1069 28.4015 48.1069 29.1333C48.1069 29.8652 48.4916 30.4576 49.2612 30.8409C49.8209 31.1197 50.4505 31.2591 51.1851 31.2591C51.9196 31.2591 52.0595 31.2243 52.5143 31.1197C53.3538 30.9455 54.0184 30.7364 54.5081 30.5273C54.683 30.4576 54.7879 30.3879 54.8929 30.353C55.2077 30.1091 55.5575 29.6909 55.8723 29.1682L56.5719 27.8788H56.9567V26.2061L56.9217 26.1712ZM44.9587 20.9788C44.574 20.7349 44.1892 20.5258 43.8044 20.2818C43.2797 19.9333 42.9999 19.7243 42.9299 19.6546C42.825 19.5152 42.79 19.2712 42.79 18.9924C42.4052 19.55 42.0205 20.2121 41.6007 21.0136C41.9855 21.3273 42.1954 21.5015 42.1954 21.5015C42.4752 22.7561 42.6501 23.6621 42.755 24.2894C42.8949 24.9864 42.9299 25.4394 42.9299 25.6833C42.9299 25.9273 42.9299 25.9621 42.86 26.1712H39.7468V27.8439H43.3497C43.4196 27.8439 43.5945 27.7742 43.6295 27.7742L44.0143 25.6833L43.6645 22.7909C43.6645 22.7212 43.6645 22.6515 43.6995 22.6167L44.504 21.5712C44.6789 21.3273 44.8188 21.1879 44.8888 21.0136M40.4114 26.1712H40.1316C39.7818 26.1712 39.6069 25.997 39.5719 25.6833C39.397 23.453 39.2221 21.7803 39.1172 20.6652C39.0472 20.1076 39.0122 19.6546 38.9423 19.2712L37.648 21.0485L38.4176 26.1712H35.3394V27.8439H37.8579L38.5575 26.8682C38.6275 27.0424 38.6974 27.6697 38.9073 27.8439H40.4114V26.1712ZM35.969 26.1712H34.8847V26.0318L35.2344 25.4394C35.3744 25.1606 35.4793 24.9864 35.4793 24.847C35.4793 24.4636 35.2344 24.0803 34.8147 23.7318C34.36 23.3833 33.9052 23.2091 33.4155 23.2091C32.9258 23.2091 32.8558 23.2788 32.5061 23.3833L31.7365 23.6273L30.862 25.2652C31.0369 25.2652 31.2118 25.2303 31.3517 25.2303C31.9814 25.2303 32.4711 25.5439 32.8209 26.2061H29.0431V27.8788H32.8908L33.4505 26.903L34.0102 27.8788H36.004V26.2061L35.969 26.1712ZM27.469 29.3424C27.3291 29.447 27.0842 29.6909 26.6995 30.0743C26.2098 29.8303 25.825 29.5864 25.5801 29.3424C25.1604 29.7955 24.8805 30.1439 24.6707 30.4227C24.7406 30.4924 24.9505 30.6318 25.3003 30.8409C25.6501 31.0849 25.86 31.1894 25.8949 31.1894C25.825 31.1894 26.0698 30.9803 26.5945 30.5273L27.7838 31.2242C28.2036 30.7712 28.5184 30.3879 28.7283 30.0743L27.434 29.3424H27.469ZM29.6727 26.1712H29.253C28.5534 26.0318 28.2036 25.753 28.2036 25.3C28.2036 24.847 28.2036 24.9515 28.2735 24.603C28.3435 24.2546 28.3435 24.0106 28.3435 23.8015C28.3435 23.5924 28.3435 23.4879 28.3085 23.3485C27.7139 23.9409 27.3641 24.3243 27.2591 24.4985C27.1892 24.8121 27.1892 25.0561 27.2242 25.2303C27.1542 25.7879 27.0842 26.1015 27.0493 26.1364H23.8661V27.8091H26.6995L27.2941 26.7636C27.2941 26.903 27.434 27.1121 27.6439 27.3909C27.8888 27.6697 28.0986 27.7742 28.3085 27.7742H29.6727V26.1015V26.1712ZM24.2509 26.1712H22.5719V27.8439H24.2509V26.1712ZM22.9916 26.1712H21.3126V27.8439H22.9916V26.1712ZM21.6974 26.1712H20.0184V27.8439H21.6974V26.1712ZM20.4032 26.1712H18.7242V27.8439H20.4032V26.1712ZM19.1439 26.1712H17.4649V27.8439H19.1439V26.1712ZM15.8908 25.8924C15.8209 25.9273 15.6809 25.9621 15.4361 25.9621C15.1912 25.9621 15.1563 25.9621 15.1213 25.9621C14.7715 25.8924 14.5266 25.753 14.4217 25.5788C14.3167 25.4394 14.2818 25.3349 14.2818 25.2303C14.2818 25.1258 14.3517 25.0212 14.5266 24.847C14.7365 24.6379 14.9114 24.5333 15.0863 24.5333C15.3312 24.5333 15.611 24.8121 15.8558 25.2303C15.9258 25.3349 15.9958 25.5439 16.1007 25.8227L15.9608 25.9621L15.8908 25.8924ZM17.9196 26.1712H17.4299C17.325 25.1606 17.0451 24.1849 16.5554 23.3485C16.4155 23.0697 16.1707 22.8955 15.8558 22.7561C15.8558 22.7561 15.7859 22.7561 15.6809 22.7561C15.4361 22.7561 15.2612 22.8258 15.0863 22.9652C14.7365 23.2439 14.4217 23.6273 14.1419 24.15C14.0019 24.4288 13.827 24.8121 13.6521 25.3349C13.4073 25.8924 13.3023 26.3106 13.3023 26.5894C13.3023 26.8682 13.3023 26.7636 13.3023 26.8333C13.3723 27.2167 13.967 27.6349 14.3517 27.7046C14.8764 27.8091 15.5061 27.8788 16.1707 27.9485C15.1912 29.0985 14.1768 29.7606 13.1274 30.0394C12.8476 30.1091 12.6028 30.1439 12.4279 30.1439C12.253 30.1439 12.148 30.0743 11.6233 29.9349C11.1336 29.7955 10.8538 29.7606 10.8188 29.7606C10.6789 29.7606 10.574 29.7606 10.574 29.7955V29.9349C10.8538 30.2136 11.3085 30.4924 11.9731 30.7364C12.7077 31.0152 13.2674 31.2242 13.6521 31.3288C13.7921 31.3288 13.932 31.3636 14.0719 31.3636C14.3167 31.3636 14.4916 31.3636 14.6316 31.2939C15.0163 31.1197 15.3312 30.9455 15.541 30.7015C15.9258 30.3879 16.2406 29.9349 16.5554 29.3773C16.6954 29.0985 16.9402 28.6106 17.22 27.9136H17.8847V26.2409L17.9196 26.1712ZM12.0081 25.8227C12.0081 25.3349 11.8682 24.7424 11.6583 24.0455C11.4135 23.3485 11.1336 22.7909 10.7838 22.4076C10.2242 23.3833 9.90934 23.9061 9.90934 23.9758C9.90934 24.0455 10.0842 24.3939 10.469 25.1955C10.8538 25.997 11.0287 26.5546 11.0287 26.903C11.0287 27.2515 10.574 27.6349 9.66449 27.9136C8.92992 28.1576 8.30029 28.2621 7.74062 28.2621C6.02663 28.2621 5.18712 27.6349 5.18712 26.3803C5.18712 25.1258 5.29206 25.5788 5.46696 25.1606C5.67683 24.7773 5.78177 24.5682 5.78177 24.5333V24.3591C5.78177 24.3591 5.71181 24.3591 5.67683 24.3243C5.36202 24.4288 5.01222 24.9515 4.69741 25.9273C4.41757 26.7985 4.24268 27.4258 4.24268 27.8788C4.24268 29.4121 5.2221 30.1788 7.11099 30.1788C8.99988 30.1788 8.6151 30.0046 9.52457 29.6212C10.6089 29.1682 11.2386 28.6455 11.4135 28.053C11.4834 27.8788 11.5184 27.7743 11.5534 27.7046L11.7633 27.0076C11.9032 26.5546 11.9731 26.1712 11.9731 25.8576M8.65008 21.1182C8.65008 21.0485 8.47519 20.9091 8.09041 20.6303C7.74062 20.3515 7.49576 20.2121 7.4258 20.2121C7.35584 20.2121 7.18095 20.3864 6.93609 20.7C6.69124 21.0136 6.55132 21.2227 6.51634 21.3621C7.11099 21.85 7.46078 22.0591 7.6007 22.0591C7.74062 22.0591 7.84556 21.9197 8.16037 21.6758C8.47519 21.397 8.65008 21.2227 8.65008 21.1182Z" fill="#003A70"/>
<path id="Vector_48" d="M103.444 12.0576C103.444 11.9879 103.689 11.8137 104.109 11.6743C104.284 11.6046 104.459 11.5697 104.564 11.5697C104.809 11.5697 104.984 11.744 105.123 12.0576C105.123 12.1273 105.228 12.4061 105.333 12.8243L103.444 12.0576ZM106.907 13.0682C106.907 12.894 106.907 12.7197 106.837 12.5803C106.488 11.4303 106.243 10.594 106.033 10.0364C106.033 10.0015 105.963 9.96668 105.893 9.89699C105.578 9.89699 104.914 10.0712 103.969 10.5243C103.584 10.6985 103.165 11.047 102.815 11.5349C102.5 11.9879 102.255 12.4061 102.115 12.8243L101.835 13.5212H99.0021V15.194H101.626C101.765 15.0546 101.905 14.8106 102.08 14.4621C102.22 14.1485 102.36 13.9743 102.605 13.8697L105.823 15.0197C106.383 14.1485 106.698 13.6606 106.733 13.5561C106.837 13.3818 106.872 13.2076 106.872 13.103M99.9465 13.4864H99.7716C99.4918 13.4864 99.3169 13.4167 99.2819 13.2773C99.4218 12.7197 99.4918 12.4061 99.4918 12.3015V10.9773L99.142 11.3258C98.6523 11.9879 98.4074 12.3712 98.4074 12.4758C98.4074 12.5803 98.4424 12.65 98.5124 12.8591C98.5823 13.103 98.6173 13.2424 98.6173 13.2424C98.6173 13.347 98.6173 13.4167 98.6173 13.4864H97.0782V12.9985L97.5329 11.2212C96.7634 11.8833 96.3436 12.3364 96.2387 12.5803C96.2387 12.9637 96.2387 13.2424 96.2387 13.4864H94.1749V15.1591H95.9239L96.3086 14.7758C96.4486 14.95 96.5185 15.0546 96.5535 15.1591H98.8272C98.8272 15.0197 98.8971 14.8455 99.0021 14.6712L99.3868 15.1591H99.9815V13.4864H99.9465ZM95.4691 13.347C95.3992 13.347 95.1893 13.4864 95.1193 13.4864C94.9095 13.4864 94.6646 13.347 94.4547 13.1379C94.4547 13.103 94.5947 12.6849 94.8395 11.9182C94.9794 11.4652 95.0494 11.1167 95.0144 10.8727C94.3498 11.5349 93.8951 12.0227 93.6502 12.3712V12.9637C93.5453 13.3121 93.4403 13.5212 93.3004 13.5212H90.572V15.194H92.7058C92.8807 15.194 93.1255 15.0197 93.4753 14.6015C93.5453 14.8455 93.8601 15.194 94.1049 15.194H95.3292V13.5212C95.3992 13.5212 95.4691 13.3818 95.4691 13.3818M92.0412 13.4864H91.6564C91.4115 13.4864 90.9568 13.1727 90.8868 12.8243C90.8868 12.8243 90.8868 12.7197 90.8868 12.6152L91.0617 10.6637L90.4671 11.2212C90.2222 11.4652 90.0473 11.6743 89.9774 11.8833C89.9074 12.0227 89.9074 12.2667 89.9074 12.65C89.9074 13.0333 89.9074 13.3121 89.7675 13.4515H86.3395V15.1243H89.3827L89.9774 14.1137C90.0823 14.3924 90.1872 14.6015 90.2572 14.6712C90.5021 14.95 90.7469 15.1243 91.0267 15.1243H92.0412V13.4515V13.4864ZM89.9074 7.28335L89.4177 7.70153C89.2428 7.87577 89.1029 7.98032 89.0679 7.98032C88.9979 7.98032 88.8231 7.91062 88.3333 7.59698C88.0885 7.42274 87.9486 7.35305 87.9136 7.35305C87.8786 7.35305 87.7387 7.49244 87.4589 7.77123C87.179 8.05002 87.0041 8.25911 86.9342 8.3985C87.3189 8.71214 87.7037 8.92123 87.9835 9.02577C88.1584 9.09547 88.2634 9.13032 88.2634 9.13032C88.2284 9.13032 88.4733 8.88638 88.9979 8.4682C89.7325 8.92123 90.1523 9.13032 90.2922 9.13032C90.2222 9.13032 90.2922 9.09547 90.4671 9.02577C90.8519 8.57274 91.1317 8.25911 91.2716 8.05002L89.9074 7.3182V7.28335ZM87.284 13.4864H87.0391C86.7942 13.4864 86.6543 13.3818 86.6543 13.2076L86.8292 12.197V10.9076C86.7243 10.9773 86.5144 11.2561 86.1996 11.6743C85.8848 12.0924 85.7449 12.3364 85.7449 12.3712C85.7449 12.4061 85.8848 12.7197 85.8848 12.8243C85.9897 13.3121 86.0247 13.5212 85.9897 13.5212H84.4156C84.3807 13.4515 84.3457 13.347 84.3457 13.2424C84.3457 13.1379 84.4856 12.4061 84.8004 11.1864C84.5206 11.4303 84.2058 11.7091 83.9259 12.0227C83.6461 12.3015 83.5412 12.4758 83.5062 12.5455C83.5062 12.9637 83.4712 13.3121 83.5062 13.5212H81.4074V15.194H83.2263C83.4012 14.95 83.5412 14.8455 83.6111 14.8106L83.821 15.194H86.0947C86.1296 15.0546 86.1996 14.8803 86.3045 14.7061L86.6893 15.194H87.284V13.5212V13.4864ZM84.5206 8.25911C84.4506 8.29396 84.2757 8.43335 83.9959 8.67729C83.821 8.85153 83.6811 8.92123 83.6461 8.92123C83.6111 8.92123 83.2263 8.71214 82.4568 8.29395C82.0021 8.74698 81.7222 9.06062 81.6523 9.20002C82.3868 9.58335 82.8066 9.79244 82.8416 9.79244C82.8765 9.79244 82.9815 9.72274 83.1564 9.5485C83.4012 9.30456 83.5412 9.20002 83.6111 9.16517L84.9054 9.86214C85.2202 9.51365 85.5 9.20002 85.7449 8.88638L84.5206 8.22426V8.25911ZM83.5062 6.86517C82.9815 7.38789 82.7366 7.63183 82.7366 7.63183L83.5412 8.3288L84.3807 7.56214L83.5062 6.83032V6.86517ZM82.6317 13.4864H80.9527V15.1591H82.6317V13.4864ZM81.3375 13.4864H79.6584V15.1591H81.3375V13.4864ZM80.1831 13.347C80.1132 13.347 79.9033 13.4864 79.8333 13.4864C79.6235 13.4864 79.3786 13.347 79.1687 13.1379C79.1687 13.103 79.3086 12.6849 79.5535 11.9182C79.6934 11.4652 79.7634 11.1167 79.7284 10.8727C79.0638 11.5349 78.6091 12.0227 78.3642 12.3712V12.9637C78.2593 13.3121 78.1543 13.5212 78.0144 13.5212H75.286V15.194H77.4198C77.5947 15.194 77.8395 15.0197 78.1893 14.6015C78.2593 14.8455 78.5741 15.194 78.8189 15.194H80.0432V13.5212C80.1132 13.5212 80.1831 13.3818 80.1831 13.3818M74.8313 13.2773C74.5165 13.4167 74.2366 13.4864 73.9918 13.4864C73.7469 13.4864 73.572 13.4167 73.2572 13.2424C72.8724 13.0682 72.6975 12.8591 72.6975 12.65C72.6975 12.4409 72.9074 12.3015 73.3621 12.0924C73.7119 11.9182 73.9568 11.8485 74.1317 11.8485C74.4115 11.8485 74.7263 11.9879 75.0062 12.6152C75.0412 12.6849 75.0761 12.8591 75.0761 13.103L74.8663 13.2773H74.8313ZM76.7901 13.4864H75.5309C75.8107 12.9637 76.0556 12.5803 76.1955 12.3364C76.1955 12.2667 76.2305 12.0924 76.2305 11.8833C76.2305 11.5 76.1605 11.1515 76.0206 10.803C75.8457 10.3849 75.5658 10.1758 75.251 10.1758C74.7613 10.1758 74.0967 10.4894 73.3272 11.1167C72.6975 11.6046 72.1379 12.1621 71.7181 12.7197C71.6482 13.0333 71.5782 13.2773 71.6132 13.4864H69.3045V15.1591H76.7901V13.4864ZM74.8663 8.15456C74.1667 7.52729 73.7819 7.21365 73.7119 7.21365C73.642 7.21365 73.3272 7.56214 72.6626 8.18941L73.7119 9.06062C74.0967 8.81668 74.4815 8.50305 74.8663 8.15456ZM70.3539 13.4864H66.5761C66.2613 13.9743 65.9115 14.5318 65.5617 15.194C66.0514 15.2288 66.5761 15.2637 67.1008 15.2985C67.7305 15.403 68.2551 15.7167 68.6049 16.2046C67.4506 16.6924 66.3663 16.9015 65.3519 16.9015C64.3374 16.9015 64.0576 16.7621 63.463 16.5182C62.7634 16.1697 62.4136 15.7167 62.4136 15.1243C62.4136 14.5318 62.5535 14.4621 62.8333 13.9743C63.0782 13.5561 63.323 13.2076 63.6379 12.9288C63.8128 12.7546 63.9177 12.5803 63.9177 12.4758C63.9177 12.3712 63.9177 12.4061 63.8477 12.3364C63.323 12.5803 62.7984 13.103 62.2387 13.9743C61.679 14.8803 61.3642 15.6818 61.3642 16.3788C61.3642 17.0758 61.749 17.7379 62.5185 18.0864C63.0782 18.3652 63.7078 18.5046 64.4424 18.5046C65.177 18.5046 65.4218 18.4697 65.8066 18.3652C67.5206 17.9818 68.6049 17.3894 69.1296 16.5879C69.4794 15.9955 69.7593 15.5076 69.8992 15.194H70.3539V13.5212V13.4864ZM58.8807 6.62123C58.7407 6.79547 58.4959 7.1788 58.1811 7.66668C57.8313 8.22426 57.6564 8.57274 57.6564 8.67729L58.4259 15.1591C58.9856 14.2879 59.3004 13.2773 59.3004 12.0227L58.8807 6.62123ZM56.7119 8.29395C56.3272 8.05002 55.9424 7.84092 55.5576 7.59698C55.0329 7.2485 54.7531 7.03941 54.6831 6.96971C54.5782 6.83032 54.5432 6.58638 54.5432 6.30759C54.1584 6.86517 53.7737 7.52729 53.3539 8.3288C53.7387 8.64244 53.9486 8.81668 53.9486 8.81668C54.2284 10.0712 54.4033 10.9773 54.5082 11.6046C54.6481 12.3015 54.6831 12.7546 54.6831 12.9985C54.6831 13.2424 54.6831 13.2773 54.6132 13.4864H51.5V15.1591H55.1029C55.1728 15.1591 55.3477 15.0894 55.3827 15.0894L55.7675 12.9985L55.4177 10.1061C55.4177 10.0364 55.4177 9.96668 55.4527 9.93183L56.2572 8.88638C56.4321 8.64244 56.572 8.50305 56.642 8.3288M52.5494 13.4864H50.8704V15.1591H52.5494V13.4864ZM55.0329 13.4864H53.3539V15.1591H55.0329V13.4864ZM53.7737 13.4864H52.0947V15.1591H53.7737V13.4864ZM50.4856 13.6955C50.4856 13.6955 50.3457 13.7303 50.2407 13.7303C50.0309 13.7303 49.6811 13.5909 49.2613 13.3121L48.3519 12.7546C48.5268 12.4409 48.9465 12.2667 49.5412 12.2667C50.1358 12.2667 50.1008 12.4409 50.2757 12.7546C50.4156 13.0333 50.4856 13.2773 50.4856 13.5212V13.6606V13.6955ZM52.5144 13.4864H51.9198C51.57 13.2076 51.1852 12.6152 50.8004 11.6394C50.7654 11.5349 50.7305 11.4303 50.7305 11.2909V10.9773C50.7305 10.803 50.5905 10.6985 50.2757 10.6985C49.9609 10.6985 49.5412 10.8727 48.9465 11.1864C48.3519 11.5 47.9321 11.8485 47.6872 12.1621L47.2325 12.9288C46.9877 13.3121 46.8477 13.4864 46.7778 13.4864H44.3992V15.1591H46.2181C46.358 15.1591 46.4979 15.0546 46.6029 14.8106C46.7778 14.497 46.9177 14.2879 47.0226 14.1833L50.5556 16.0303C50.6605 16.0303 50.7654 15.8561 50.8354 15.5773C50.9053 15.2985 51.0103 15.1591 51.1502 15.1591H52.4095V13.4864H52.5144ZM45.7284 13.4864H45.4486C45.0988 13.4864 44.9239 13.3121 44.8889 12.9985C44.714 10.7682 44.5391 9.09547 44.4342 7.98032C44.3642 7.42274 44.3292 6.96971 44.2593 6.58638L42.965 8.36365L43.7346 13.4864H40.6564V15.1591H43.1749L43.8745 14.1833C43.9444 14.3576 44.0144 14.9849 44.2243 15.1591H45.7284V13.4864ZM42.1605 13.4864H41.8107C41.5658 13.4864 41.4609 13.4167 41.4609 13.2424C41.286 11.6046 41.1811 10.3849 41.1111 9.5485L40.9712 8.18941C40.9012 7.49244 40.8663 6.96971 40.7963 6.58638C40.2366 7.35305 39.7819 7.94547 39.5021 8.36365L40.1667 13.4515H32.5761C32.4712 13.4515 32.4012 13.4167 32.3663 13.3818C31.5617 13.1379 31.142 12.7197 31.142 12.0227C31.142 11.3258 31.142 11.7091 31.2119 11.5697C31.2119 11.5 31.4568 11.0818 31.4568 11.0121V10.8379C31.4568 10.8379 31.3868 10.8379 31.3868 10.803C31.142 10.803 30.9321 11.047 30.7222 11.6394C30.4774 12.197 30.3724 12.7197 30.3724 13.1379C30.3724 13.5561 30.4774 14.2879 31.177 14.8106C31.5267 15.0546 31.8416 15.1591 32.1564 15.1591H39.677L40.2366 14.1833C40.3066 14.7758 40.3765 15.0894 40.4115 15.1591H42.1605V13.4864ZM37.4383 7.91062C37.1584 7.91062 36.6687 8.29395 36.0741 9.02577C35.4794 9.75759 35.1646 10.3152 35.1646 10.6985C35.1646 11.0818 35.3395 11.047 35.6543 11.1864C35.8992 11.2561 36.1091 11.3606 36.3539 11.4652C35.5844 11.7788 34.9897 12.0227 34.57 12.1621C34.5 12.1621 34.5 12.2318 34.5 12.3364C34.6749 12.3364 34.8848 12.3712 35.1996 12.3712C35.6893 12.3712 36.0041 12.3364 36.1091 12.2667C36.8786 11.8137 37.2634 11.2561 37.2634 10.5591C37.2634 9.86214 37.0885 10.1758 36.7037 10.0712C36.3539 9.96668 36.144 9.82729 36.144 9.72274C36.144 9.6182 36.3189 9.40911 36.6337 9.26971L37.1934 8.99092C37.4383 8.53789 37.5782 8.18941 37.6831 7.91062H37.4383ZM28.9383 12.8591C27.5391 12.5803 25.8951 11.8833 24.0761 10.7682C23.9012 10.6637 23.6214 10.5591 23.3066 10.4894C23.1317 10.4894 22.9568 10.4546 22.8169 10.4546C22.677 10.4546 22.572 10.4546 22.4321 10.5243C21.9424 10.6637 21.4177 11.1167 20.928 11.8833C20.7881 12.1273 20.6831 12.2667 20.6831 12.2667V12.4061L21.6625 12.0924C21.7325 12.0924 21.8025 12.0924 21.8724 12.0924C22.0123 12.0924 22.1523 12.0924 22.3272 12.1621C22.9218 12.2667 23.5864 12.5455 24.321 12.9637C24.1461 13.103 24.0411 13.1727 23.9712 13.2076C23.4465 13.3818 23.0267 13.4864 22.677 13.4864H19.0041V15.1591H22.3272C22.3272 15.1591 22.677 15.0197 23.2366 14.7758L24.6358 14.1833C24.8107 14.1137 24.9856 14.0788 25.1605 14.0788L27.8189 14.2879C27.8889 14.2879 27.9938 14.253 28.0638 14.1485L29.0082 12.8591H28.9383ZM23.1317 7.45759C22.9918 7.56214 22.7819 7.73638 22.537 7.98032C22.2922 8.22426 22.1523 8.43335 22.0823 8.57274C22.8169 9.13032 23.2716 9.37426 23.4465 9.37426C23.6214 9.37426 23.9362 9.06062 24.4259 8.43335C24.4959 8.3288 24.5658 8.25911 24.5658 8.18941L23.1667 7.42274L23.1317 7.45759ZM20.0185 13.4864H19.6687C19.5288 13.4864 19.179 13.3121 19.0741 13.2773C18.9691 13.2773 18.8992 13.2076 18.8992 13.1379C18.7593 12.0924 18.5494 10.2106 18.3045 7.45759L18.1646 5.95911C17.7798 6.34244 17.465 6.72577 17.1852 7.03941C17.0453 7.21365 16.9403 7.3182 16.9403 7.38789L17.6749 15.1591H20.0535V13.4864H20.0185ZM16.1008 8.29395C15.716 8.05002 15.3313 7.84092 14.9465 7.59698C14.4218 7.2485 14.142 7.03941 14.072 6.96971C13.9671 6.83032 13.9321 6.58638 13.9321 6.30759C13.5473 6.86517 13.1625 7.52729 12.7428 8.3288C13.1276 8.64244 13.3374 8.81668 13.3374 8.81668C13.6173 10.0712 13.7922 10.9773 13.8971 11.6046C14.037 12.3015 14.072 12.7546 14.072 12.9985C14.072 13.2424 14.072 13.2773 14.0021 13.4864H10.8889V15.1591H14.4918C14.5617 15.1591 14.7366 15.0894 14.7716 15.0894L15.1564 12.9985L14.8066 10.1061C14.8066 10.0364 14.8066 9.96668 14.8416 9.93183L15.6461 8.88638C15.821 8.64244 15.9609 8.50305 16.0309 8.3288M14.4568 13.4864H12.7778V15.1591H14.4568V13.4864ZM13.1625 13.4864H11.4835V15.1591H13.1625V13.4864ZM12.0082 13.4864H11.5535C11.1687 13.4864 10.9588 13.347 10.8539 13.0333L9.8395 8.92123L8.96502 10.594C9.06996 10.9773 9.20987 11.3606 9.31481 11.744C9.55967 12.5106 9.66461 12.9985 9.66461 13.2076C9.66461 13.4167 9.66461 13.347 9.59465 13.4167H6.02675C5.78189 13.4167 5.64197 13.2076 5.74691 12.0576C5.71193 11.9879 5.67695 11.9879 5.64197 11.953C5.39712 12.2318 5.2572 12.6152 5.18724 13.0682C5.04732 13.7652 4.94238 14.3576 4.94238 14.7758C5.01234 15.0197 5.11728 15.1591 5.22222 15.1591H9.06996C9.17489 15.0546 9.31481 14.8106 9.45473 14.497C9.59465 14.2182 9.69958 14.044 9.8395 14.044L10.2942 15.194H12.0082V13.5212V13.4864Z" fill="#003A70"/>
</g>
</svg>
